<?xml version="1.0" encoding="UTF-8" standalone="no"?>
<svg
   xmlns:dc="http://purl.org/dc/elements/1.1/"
   xmlns:cc="http://creativecommons.org/ns#"
   xmlns:rdf="http://www.w3.org/1999/02/22-rdf-syntax-ns#"
   xmlns:svg="http://www.w3.org/2000/svg"
   xmlns="http://www.w3.org/2000/svg"
   xmlns:sodipodi="http://sodipodi.sourceforge.net/DTD/sodipodi-0.dtd"
   xmlns:inkscape="http://www.inkscape.org/namespaces/inkscape"
   inkscape:version="1.0beta2 (2b71d25, 2019-12-03)"
   sodipodi:docname="icon.svg"
   viewBox="0 0 484.55353 277.75977"
   height="277.75977"
   width="484.55353"
   id="svg3886"
   version="1.1">
  <metadata
     id="metadata3892">
    <rdf:RDF>
      <cc:Work
         rdf:about="">
        <dc:format>image/svg+xml</dc:format>
        <dc:type
           rdf:resource="http://purl.org/dc/dcmitype/StillImage" />
        <dc:title></dc:title>
      </cc:Work>
    </rdf:RDF>
  </metadata>
  <defs
     id="defs3890" />
  <sodipodi:namedview
     fit-margin-bottom="0"
     fit-margin-right="0"
     fit-margin-left="0"
     fit-margin-top="0"
     inkscape:document-rotation="0"
     inkscape:current-layer="svg3886"
     inkscape:window-maximized="0"
     inkscape:window-y="179"
     inkscape:window-x="441"
     inkscape:cy="157.99897"
     inkscape:cx="237.08368"
     inkscape:zoom="1.23"
     showgrid="false"
     id="namedview3888"
     inkscape:window-height="805"
     inkscape:window-width="983"
     inkscape:pageshadow="2"
     inkscape:pageopacity="0"
     guidetolerance="10"
     gridtolerance="10"
     objecttolerance="10"
     borderopacity="1"
     bordercolor="#666666"
     pagecolor="#ffffff" />
  <path
     inkscape:connector-curvature="0"
     id="path3898"
     d="m 168.54783,277.22468 1.76903,-0.46099 1.23097,0.49804 1.23097,0.49805 -3,-0.0371 -3,-0.0371 1.76903,-0.46099 z m -19.76903,-1.27146 2,-0.75452 -12.39761,0.50283 -12.39761,0.50284 0.6139,-0.99332 0.6139,-0.99332 -5.11263,0.49126 -5.11263,0.49126 0.80182,-1.29736 0.80181,-1.29737 -3.5623,0.57809 -3.5623,0.57808 -4.12929,-1.21923 -4.12928,-1.21924 0.63502,-0.63502 0.63503,-0.63502 -2.25529,0.58977 -2.255279,0.58977 0.657749,-1.06427 0.65775,-1.06426 -2.157749,0.56426 -2.15775,0.56427 0.81088,-1.31203 0.81088,-1.31204 -1.17302,0.72497 -1.17302,0.72496 -9.731487,-3.72628 -9.731491,-3.72628 -3.78532,-1.88252 -3.78532,-1.88252 0.524558,-0.84875 0.524558,-0.84875 -1.739238,0.13709 -1.739238,0.1371 0.238004,-1.21401 0.238004,-1.21401 -1.32779,0.50952 -1.32779,0.50952 -1.410214,-1.73747 -1.410214,-1.73747 1.404508,0.84647 1.404509,0.84647 -0.723607,-1.17082 -0.723607,-1.17082 -1.030229,0.63671 -1.03023,0.63672 -5.853423,-5.79235 -5.853424,-5.79234 0.60726,-0.98257 0.60726,-0.98257 -1.100033,0.67986 -1.100033,0.67986 -4.091737,-6.02535 -4.091736,-6.02535 h 0.969167 0.969167 l 2.316542,3.25 2.316543,3.25 0.0016,0.75 0.0016,0.75 1,0.10308 1,0.10308 4.135641,3.8121 4.13564,3.8121 2.86436,1.48981 2.864359,1.4898 2.312152,2.47563 2.312153,2.47562 6.687847,3.07051 6.687848,3.07051 6.620991,1.04746 6.62099,1.04746 5.11166,-0.9694 5.111659,-0.96941 3.76735,-1.95089 3.76735,-1.9509 2,-1.50686 2,-1.50687 -7,1.99634 -7,1.99634 -7.063869,-0.47656 -7.06386,-0.47657 -3.839676,-1.60431 -3.839675,-1.60432 0.40354,-0.38017 0.40354,-0.38017 7.000001,1.45392 7,1.45392 5.758139,-1.01209 5.75814,-1.01209 5.14665,-2.58501 5.14665,-2.58502 4.88476,-4.08975 4.88477,-4.08976 4.41386,-6.18547 4.41386,-6.18547 3.0458,-6.4383 3.04579,-6.43829 -0.0346,1.5 -0.0347,1.5 -1.42913,2.5 -1.42913,2.5 -0.0354,0.95 -0.0354,0.95 0.89558,-0.95 0.89558,-0.95 3.56629,-9.60453 3.56629,-9.60453 1.1573,-9.39547 1.1573,-9.39547 -0.62324,-9.73555 -0.62324,-9.73555 -1.9021,-9.81221 -1.9021,-9.81221 -2.67915,-8.78358 -2.67916,-8.78358 -0.3771,0.3771 -0.37711,0.3771 2.96243,9.86706 2.96243,9.86705 -0.041,1.58718 -0.041,1.58719 -4.50876,-14.3817 -4.50877,-14.38169 -2.95024,-6.50662 -2.95024,-6.50662 0.0442,-0.61169 0.0442,-0.61168 2.02811,3.84436 2.0281,3.84437 0.4106,-0.4106 0.4106,-0.41059 -0.92311,-3.21869 -0.92311,-3.21869 0.35873,-5.18792 0.35873,-5.187921 1.33148,-0.35028 1.33148,-0.35028 2.32398,-1.13545 2.32398,-1.13545 -0.68587,-6.04143 -0.68588,-6.04143 -2.49062,-8 -2.49061,-8 -4.00729,-7.74686 -4.00729,-7.74686 -6.48383,-7.00314 -6.48384,-7.00314 h 1.00344 1.00344 l 7.8402,8.40036 7.84019,8.40037 3.34049,5.54754 3.34049,5.54755 4.00301,9.28507 4.00302,9.28507 2.85717,13.07218 2.85716,13.072181 0.91691,2.44484 0.9169,2.44484 1.27454,18 1.27453,18 -1.64211,16.51445 -1.64227,16.51445 0.0989,4.48555 0.0989,4.48555 1.45099,-4.5 1.451,-4.5 1.43593,-8.5 1.43593,-8.5 0.61794,-17 0.61794,-17 -1.14014,-8 -1.14015,-8 -0.9212,-7 -0.92121,-7 -2.11619,-7.000001 -2.11619,-7 -1.42366,-5 -1.42366,-5 -4.42757,-9.18406 -4.42756,-9.18406 -4.97207,-7.36829 -4.97207,-7.36828 -4.42534,-4.55334 -4.42534,-4.55335 -5.92756,-3.81585 -5.92756,-3.81586 -4.5,-1.70809 -4.499999,-1.70809 -8.5,-0.64488 -8.499998,-0.64487 -1.47104,0.97014 -1.471039,0.97013 0.804285,0.80438 0.804286,0.80437 5.666756,0.20616 5.66675,0.20616 0.80902,0.0438 0.80902,0.0438 -0.64281,1.04008 -0.64281,1.04008 2.58379,-0.64849 2.58373,-0.64841 v 1.07703 1.07702 l 1.5,-0.5756 1.499999,-0.57561 v 1.16601 1.166 l 0.96251,-0.59486 0.9625,-0.59486 5.13693,2.60308 5.13693,2.60308 -0.57524,0.57524 -0.57525,0.57524 5.43271,5.86797 5.43271,5.86798 3.56155,6.36864 3.56155,6.36864 2.48155,7.29606 2.48155,7.29606 v 2.25342 2.25342 l -1.57143,1.57143 -1.57143,1.57143 h -2.56833 -2.56832 l -1.17375,1.6052 -1.17375,1.6052 -5.82512,-7.6052 -5.82511,-7.6052 h -0.86138 -0.86138 l 0.25,1.25 0.25,1.25 1,0.71353 1,0.71352 0.125,1.03648 0.125,1.03647 0.125,1.05902 0.125,1.05901 1.15451,-0.71352 1.15451,-0.71353 -0.64877,1.04973 -0.64876,1.04972 1.55764,0.59772 1.55763,0.59772 -0.63248,1.02338 -0.63248,1.02337 -0.9309,-0.57533 -0.9309,-0.57532 v 0.86788 0.86789 l 1.58164,1.94113 1.58163,1.94113 -0.53796,-1.71797 -0.53796,-1.71798 1.11083,-0.68653 1.11084,-0.68654 -0.64877,1.04973 -0.64876,1.04972 1.55764,0.59772 1.55763,0.59772 -0.63248,1.02338 -0.63248,1.02337 -0.9309,-0.57533 -0.9309,-0.57532 v 0.52459 0.52459 l 3.42862,6.28443 3.42861,6.284421 5.95384,15 5.95383,15 2.19415,7.5 2.19415,7.5 1.49703,6 1.49704,6 0.5242,16 0.5242,16 -2.05687,10 -2.05687,10 -5.1945,10.5 -5.19451,10.5 -7.09646,7.07662 -7.09646,7.07662 -6,2.92338 -6,2.92338 -8.999999,-0.15539 -8.999998,-0.15538 -5.5,-0.68202 -5.5,-0.68203 1.536286,1.58798 1.536287,1.58798 5.688731,1.99943 5.688734,1.99943 h 1.52498 1.52498 v 1 1 h -2.2899 -2.2899 l -5.902654,-1.53745 -5.902654,-1.53744 -3.557445,-2.14089 -3.557445,-2.14089 -4,-3.37842 -4,-3.37841 -6.463713,-4.69325 -6.463713,-4.69325 -5.242735,-6.5 -5.242735,-6.5 -4.282231,-8.16151 -4.282232,-8.1615 -0.915829,0.56601 -0.915829,0.56602 0.719056,-1.16346 0.719056,-1.16346 -0.636544,-2.00557 -0.636544,-2.00557 -0.823219,0.50878 -0.823218,0.50877 -0.593331,-1.54619 -0.59333,-1.5462 0.988545,0.61096 0.988546,0.61095 v -0.97568 -0.97568 l -1.25,-0.41643 -1.25,-0.41644 -0.0633,-4.27266 -0.0633,-4.27267 -1.74774,-0.97808 -1.74774,-0.97809 0.612646,-2.78936 0.612646,-2.78936 -1.551607,-0.5954 -1.551605,-0.59541 0.07028,-1.78139 0.07029,-1.78138 0.95024,2 0.95024,2 -0.506871,-2.5 -0.506871,-2.5 -0.02897,-1 -0.02897,-1 -0.792379,1.24786 -0.79238,1.24785 v -4.74875 -4.74875 l -2.896389,-7.99911 -2.89639,-7.9991 -1.545918,-1.32416 -1.545918,-1.32415 1.25,0.63317 1.25,0.63317 v -0.95202 -0.95203 l -1.579637,-0.60617 -1.579636,-0.60616 0.631243,-2.87403 0.631244,-2.87404 -1.551607,-0.5954 -1.551601,-0.59541 0.01531,-1.28139 0.01531,-1.28138 0.969374,1.5 0.969375,1.5 0.01413,-1 0.01414,-1 -1.540739,-7.5 -1.540738,-7.5 -0.56133,-18.5 -0.56133,-18.500001 2.069558,-10 2.069558,-10 4.018074,-8.12074 4.018074,-8.12074 6.448584,-6.03233 6.448584,-6.03233 5.81703,-2.31072 5.81703,-2.31071 9.075733,-0.0362 9.075732,-0.0362 8.424268,4.20631 8.424267,4.2063 8.216538,7.04094 8.216536,7.04094 6.23341,7.46947 6.233409,7.46948 0.44256,-0.44255 0.44255,-0.44256 -1.3925,-1.68482 -1.3925,-1.68482 2.18532,1.36081 2.18531,1.3608 -0.58982,0.95436 -0.58983,0.95436 1.30902,-0.80905 1.30902,-0.80902 -0.62248,1.00719 -0.62247,1.00719 1.25043,1.71007 1.25044,1.71007 0.15385,-2.04243 0.15385,-2.04244 -3.60745,-2.97357 -3.60745,-2.97356 -0.99881,0.61729 -0.99881,0.6173 0.5945,-1.54923 0.59449,-1.54923 -2.83109,-2.71237 -2.831099,-2.71236 -0.81846,0.17255 -0.81846,0.17255 -0.40474,-1.2142 -0.40473,-1.21419 1.37973,0.71538 1.37974,0.71538 -8.5,-8.23323 -8.500004,-8.23324 -6.73073,-4.37893 -6.73073,-4.37894 -7.679232,-1.96401 -7.679233,-1.96402 -2.590038,0.0129 -2.590037,0.0129 -5,2.44918 -5,2.44918 3,-0.48505 3,-0.48504 -2.39493,1.04439 -2.394929,1.04439 -2.105071,-0.5869 -2.10507,-0.58689 1.5,1.15225 1.5,1.15225 -2.25138,-0.49348 -2.25138,-0.49349 0.601732,0.97362 0.601732,0.97362 -1.850352,-0.31688 -1.850352,-0.31695 0.290894,1.37268 0.290893,1.37268 -1.592831,-0.61122 -1.592832,-0.61123 0.610955,0.98854 0.610955,0.98855 h -1.059017 -1.059017 l -0.346305,-0.25 -0.346306,-0.25 -1.642684,1.36331 -1.642684,1.3633 0.458169,0.74134 0.458169,0.74133 -2.469179,2.31967 -2.46918,2.31968 v -0.79676 -0.79676 l -1.440559,1.19556 -1.440559,1.19556 0.56324,1.46778 0.56324,1.46778 -1.372681,-0.2909 -1.372681,-0.29089 0.316882,1.85035 0.316881,1.85035 -0.997783,-0.61666 -0.997783,-0.61666 -0.723607,1.17082 -0.723607,1.17082 1.154509,-0.71353 1.154508,-0.71352 v 0.52509 0.52509 l -1.687726,3.53919 -1.687725,3.5392 -0.672987,-1.08892 -0.672987,-1.08891 -0.03219,2.83364 -0.03219,2.83365 -2.234883,8 -2.234882,8 -0.122211,18.84546 -0.122211,18.845471 0.618192,0.38209 0.618192,0.38209 0.667867,5.03462 0.667866,5.03463 0.61112,1.73782 0.611121,1.73782 -1.048758,-1 -1.048757,-1 -1.728304,-8 -1.728305,-8 -0.601697,-1 -0.601697,-1 -0.377082,-3 -0.377083,-3 L 0.03074,92.112399 0,78.807129 l 1.007034,-2.19473 1.007034,-2.19473 2.20034,-8 2.200341,-8 3.608355,-6.5 3.608355,-6.5 6.241206,-6.26013 6.241207,-6.26013 7.769049,-3.6895 7.769049,-3.68951 11.063415,-0.61992 11.063415,-0.61993 9.5,-4.59348 9.5,-4.59348 9.000001,-3.15387 8.999999,-3.15386 9.5,-2.389139 9.5,-2.38914 6.5,-1.06331 6.5,-1.06332 L 145.44889,0.93947 158.11898,0 l 14.17656,0.95322 14.17655,0.95323 12.15336,2.47615 12.15335,2.47615 9.04561,2.948279 9.0456,2.94828 9.25649,3.99069 9.25648,3.99069 5.57573,3.34049 5.57572,3.34049 7.90355,8.5 7.90354,8.5 10.82432,15.5 10.82432,15.5 1.89432,-0.20414 1.89432,-0.20414 7,-1.93613 7,-1.93612 12.31597,-1.12286 12.31597,-1.12287 8.29366,-7.37891 8.29366,-7.37892 4.39037,-3.20198 4.39037,-3.20197 5.5,-2.79334 5.5,-2.79335 12.5,-3.2217 12.5,-3.22171 13,-0.49169 13,-0.49169 9.20056,4.63231 9.20056,4.63231 8.12125,7.63989 8.12125,7.63989 4.44923,6.23504 4.44924,6.23504 4.04776,8.63771 4.04777,8.63771 2.35346,9.27761 2.35346,9.277611 1.2151,10.4282 1.2151,10.4282 -0.57624,11.5 -0.57624,11.5 -1.64525,8 -1.64524,8 -3.1042,7.5 -3.1042,7.5 -3.46143,6 -3.46144,6 -9.10545,9 -9.10545,9 -6.47205,3.75 -6.47205,3.75 -16.52275,-0.0153 -16.52275,-0.0153 1.14063,-0.73468 1.14063,-0.73469 -8.14063,-0.097 -8.14063,-0.097 -6,-1.73252 -6,-1.73252 -5.73013,-2.54815 -5.73013,-2.54814 0.63464,-1.02686 0.63464,-1.02687 -1.30622,0.80729 -1.30621,0.80728 -1.09829,-1.50201 -1.0983,-1.50201 -0.75,-0.15076 -0.75,-0.15076 h -0.99699 -0.99698 l -7.54567,-7.16765 -7.54567,-7.16765 0.47522,-1.23839 0.47521,-1.2384 -2.10445,-1.84395 -2.10446,-1.84396 0.81109,1.37973 0.81109,1.37973 -1.38919,-0.50473 -1.3892,-0.50473 0.27478,-1.19933 0.27477,-1.19933 -0.97878,0.60492 -0.97879,0.60493 -2.53908,-0.63727 -2.53908,-0.63727 0.6476,-1.04783 0.6476,-1.04784 -1.16346,0.71906 -1.16346,0.71906 -2.00557,-0.63655 -2.00557,-0.63654 0.66903,-1.08251 0.66903,-1.08252 -1.11702,0.69036 -1.11701,0.69035 -4.7875,-2.45608 -4.78749,-2.45607 -2,-1.65393 -2,-1.65392 1.40451,0.72866 1.40451,0.72867 -0.75465,-1.22104 -0.75464,-1.22104 -0.53135,0.53135 -0.53135,0.53134 -1.88335,-1.00794 -1.88335,-1.00794 -0.62433,1.62697 -0.62433,1.62697 -0.85944,-1.33384 -0.85944,-1.33385 0.65471,3.40549 0.6547,3.40549 -1.31061,-0.81 -1.31061,-0.81 0.70668,1.14344 0.70669,1.14343 -1.66194,3.50226 -1.66193,3.50226 -0.87878,-0.54312 -0.87879,-0.54313 0.65848,1.71599 0.65849,1.71598 -1.32445,-0.81855 -1.32445,-0.81856 0.66167,1.0706 0.66166,1.07059 -1.00528,2.64409 -1.00528,2.64409 -1.15639,-0.71468 -1.15638,-0.71469 0.69233,1.12022 0.69233,1.12021 -2.07616,4.06961 -2.07617,4.06962 -0.89255,-0.55163 -0.89256,-0.55163 -0.72361,1.17082 -0.72361,1.17082 1.15451,-0.71353 1.15451,-0.71352 v 0.48561 0.48561 l -5.09119,8.3234 -5.09119,8.32341 -3.85925,5 -3.85926,5 -8.37795,8.3072 -8.37794,8.30721 -1.37616,-0.30721 -1.37615,-0.3072 -0.0455,1.28647 -0.0455,1.28648 -1.45225,0.89754 -1.45226,0.89754 -1.04774,-0.59434 -1.04775,-0.59434 0.74364,0.82063 0.74364,0.82063 -1.9954,1.39763 -1.99539,1.39763 -1.24824,-0.71826 -1.24825,-0.71826 0.74364,0.82063 0.74364,0.82063 -1.9954,1.39763 -1.99539,1.39763 -1.15275,-0.71245 -1.15276,-0.71244 0.81856,1.32445 0.81855,1.32445 -1.71598,-0.65849 -1.71599,-0.65848 0.71599,1.15848 0.71598,1.15849 -1.71598,-0.65849 -1.71599,-0.65848 0.56646,0.91655 0.56646,0.91655 -2.00557,0.63654 -2.00557,0.63655 -1.16346,-0.71906 -1.16346,-0.71906 0.66903,1.08252 0.66903,1.08251 -2.00557,0.63654 -2.00557,0.63655 -1.16346,-0.71906 -1.16346,-0.71906 0.81088,1.31204 0.81088,1.31203 -2.15775,-0.56427 -2.15775,-0.56426 0.65775,1.06426 0.65775,1.06427 -2.15775,-0.56427 -2.15775,-0.56426 0.65775,1.06426 0.65775,1.06427 -2.15775,-0.56427 -2.15775,-0.56426 0.65775,1.06426 0.65775,1.06427 -2.15775,-0.56427 -2.15775,-0.56426 0.65775,1.06426 0.65775,1.06427 -2.15775,-0.56427 -2.15775,-0.56426 0.65775,1.06426 0.65775,1.06427 -2.15637,-0.56391 -2.15637,-0.5639 v 1.02301 1.02301 l -2.00138,-0.52337 -2.00138,-0.52337 0.65775,1.06426 0.65775,1.06427 -2.15775,-0.56427 -2.15775,-0.56426 0.65,1.05173 0.65001,1.05173 -2.61836,-0.50053 -2.61837,-0.50054 0.61837,1.00054 0.61836,1.00053 -2.61836,-0.50053 -2.61837,-0.50054 0.61837,1.00054 0.61836,1.00053 -2.61836,-0.50053 -2.61837,-0.50054 0.57652,0.93283 0.57652,0.93283 -4.85678,-0.55319 -4.85678,-0.55319 2.5,0.78801 2.5,0.78801 -20,0.0829 -20,0.0829 2,-0.75452 z m -55.912349,-9.89373 -0.53038,-0.85818 7.16539,-1.18334 7.165389,-1.18333 6.32817,-3.02016 6.32816,-3.02016 6.05978,-5.04299 6.05978,-5.043 4.89808,-6.64533 4.89807,-6.64533 3.45586,-7.0569 3.45587,-7.05689 2.46084,-6.53787 2.46085,-6.53786 2.15339,-7.84917 2.15338,-7.84916 1.9958,-11.55608 1.9958,-11.55607 0.3964,-14 0.39641,-14 -0.86968,8 -0.86969,8 -0.69176,7.5 -0.69176,7.5 -0.22488,3 -0.22488,3 -0.87195,2 -0.87196,2 -0.0113,3.66855 -0.0113,3.66856 -0.91771,-0.56718 -0.91772,-0.56718 0.50053,2.61836 0.50054,2.61837 -1.00139,-0.6189 -1.00139,-0.61889 0.68593,2.73295 0.68592,2.73294 -1.08024,-0.66758 -1.08016,-0.66758 0.54606,2.83379 0.54606,2.83379 -0.66666,-1.48204 -0.66666,-1.48204 -1.75993,5.17763 -1.75993,5.17763 0.50736,2.30441 0.50735,2.30441 -0.9133,-1.27838 -0.9133,-1.27838 -1.17345,2.57544 -1.17344,2.57543 0.0354,0.70294 0.0354,0.70295 1.42913,-2.5 1.42913,-2.5 0.0354,1.27196 0.0354,1.27195 -2.87165,6.3333 -2.87166,6.3333 -5.06773,7.89474 -5.06774,7.89475 -3.71214,3.5 -3.71215,3.5 3.36918,-5 3.36919,-5 -7.48664,7.5812 -7.48664,7.58121 -7.93497,3.91879 -7.93498,3.9188 H 92.281951 82.69316 l 5.042751,2.1383 5.04275,2.1383 0.30902,0.1117 0.30902,0.1117 -0.53039,-0.85818 z m 57.569649,-57.64182 -0.005,-1 1.34784,-3.5 1.34784,-3.5 0.031,1.5 0.031,1.5 -1.37368,3 -1.37367,3 -0.005,-1 z m -89.157297,42.15499 v -0.34501 l -2.25,-1.90499 -2.25,-1.90499 1.904988,2.25 1.904987,2.25 h 0.345013 0.345012 z m 45.999997,-3.21993 4.5,-1.50853 3,-2.53875 3,-2.53874 -5.5,2.76814 -5.5,2.76814 -6.5,1.80343 -6.499999,1.80342 4.5,-0.52429 4.499999,-0.52429 z m 174.17721,-26.54733 5.55128,-8.38773 1.88576,-3 1.88575,-3 0.0673,-1 0.0673,-1 1.65946,-5.5 1.65945,-5.5 1.6007,-6.87258 1.60069,-6.87259 -1.07741,-1.07741 -1.07749,-1.07742 v -1.26862 -1.26861 l 1.5,0.5756 1.5,0.57561 v -1.17654 -1.17654 l -2.17167,0.31955 -2.17167,0.31955 -0.94454,2.84861 -0.94453,2.84861 1.25118,2.33785 1.25117,2.33784 -1.63497,1.63497 -1.63497,1.63498 0.004,1.17857 0.004,1.17857 -3.46252,7 -3.46252,7 -3.04197,6.88832 -3.04196,6.88831 v 2.16169 2.16168 l -1.2,1.2 -1.2,1.2 h 0.76809 0.7681 l -2.29139,3.21796 -2.29139,3.21796 -6.39866,7.03204 -6.39866,7.03204 7.93492,-8.11227 7.93491,-8.11227 5.55129,-8.38773 z m -144.86424,13.36227 3.48331,-4.75 2.60801,-4.91051 2.60802,-4.91052 -0.3445,-0.34449 -0.3445,-0.3445 -2.8522,5.25501 -2.8522,5.25501 -3.40326,4.75 -3.40326,4.75 h 0.50864 0.50863 z m -47.312969,-1.45706 3.5,-1.02166 4.7802,-3.00926 4.780189,-3.00927 5.04125,-5.62637 5.04126,-5.62638 3.45606,-6.14529 3.45605,-6.14528 2.54436,-6.35472 2.54435,-6.35471 2.08161,-4.38274 2.0816,-4.38274 0.22995,-5.61726 0.22995,-5.61726 1.05004,-11.57321 1.05004,-11.57322 -0.87847,-11.92678 -0.87847,-11.92679 -1.14629,-5.96974 -1.14629,-5.96974 -2.3626,-6.27687 -2.36261,-6.276871 -4.19707,-7.25339 -4.19707,-7.25339 -5.58909,-8 -5.58908,-8 -7.312459,-8.2256 -7.31245,-8.2256 -4.187039,-1.12745 -4.187037,-1.12745 -4.010441,0.57158 -4.010441,0.57157 -2.904211,0.67753 -2.904212,0.67753 0.629212,-3.14605 0.629211,-3.14606 h -0.868011 -0.868011 l -0.606989,1.58179 -0.606989,1.58178 v 1.89789 1.89789 l -4.25,2.16299 -4.25,2.16299 -6.147165,6.26096 -6.147166,6.26097 -3.699775,6.61582 -3.699776,6.61581 -3.294909,9.23056 -3.294909,9.230551 -2.062731,10 -2.062731,10 -1.127321,9.31621 -1.12732,9.31621 1.107758,12.13923 1.107759,12.13923 1.534431,5.92156 1.534431,5.92157 2.642213,6.43391 2.642213,6.43392 -1.202501,1.92551 -1.202501,1.92551 v 1.96652 1.96651 l 1.160515,2.54706 1.160515,2.54705 h 0.839485 0.839485 v -0.94098 -0.94099 l -1,-0.61803 -1,-0.61803 v -4.02432 -4.02432 l 1.25,0.41126 1.25,0.41126 2.733843,6.76329 2.733843,6.76329 4.441439,6.65878 4.441439,6.65879 5.824718,5.87474 5.824718,5.87473 4.370625,1.97542 4.370626,1.97542 4.629374,0.74275 4.629375,0.74275 3,-0.43561 3,-0.43561 z m -8.065279,-33.42779 -2.243695,-4.63486 1.237111,-4.82695 1.237111,-4.82695 -0.64164,-1.0382 -0.64164,-1.03819 h -2.480821 -2.480821 l -3.804842,-1.94109 -3.804843,-1.94108 -3.15718,-3.59583 -3.15718,-3.59583 -2.424481,-4.78448 -2.424481,-4.78449 -1.474663,-5.9286 -1.474663,-5.9286 -0.625015,-6.04108 -0.625015,-6.04108 1.029397,-7.45892 1.029398,-7.45892 2.197871,-5.96211 2.197871,-5.96211 4.548751,-4.68882 4.548751,-4.68882 4.250022,-1.25736 4.250021,-1.257371 5.707023,2.918681 5.707022,2.91868 3.20902,4.2073 3.20902,4.20731 2.17723,5.78231 2.17724,5.78231 1.50416,7 1.504169,7 -0.59445,8.13491 -0.59446,8.13492 -1.979069,6.4075 -1.97908,6.40751 -3.11693,4.7057 -3.11692,4.7057 -2.79897,1.99304 -2.798965,1.99304 2.380542,5.75884 2.380543,5.75884 -0.58675,3 -0.58674,3 -1.424892,2.25 -1.424892,2.25 h -0.887741 -0.88774 z m 4.065281,-3.06515 v -3.7 l -1.126784,1.12678 -1.126784,1.12679 0.645836,2.57321 0.645836,2.57322 h 0.480948 0.480948 z m -1.979984,-24.81035 2.920695,-1.51035 1.064827,-1.98965 1.06483,-1.98965 h -1.5615 -1.5615 l -4.34026,-4.34026 -4.340261,-4.34026 -1.835466,-5.40974 -1.835466,-5.40974 0.01165,-7.5 0.01165,-7.5 2.27121,-5.15161 2.27121,-5.15161 2.419182,-2.2727 2.419183,-2.27271 v -0.82568 -0.82569 h -2.04966 -2.04966 l -2.7111,1.40196 -2.7111,1.40197 -2.151309,3.84803 -2.151309,3.84804 -0.997466,5.5 -0.997466,5.5 0.824456,8.0785 0.824457,8.07849 1.606293,3.8444 1.606293,3.84441 3.655626,4.4612 3.655626,4.46121 -1.661297,1.21477 -1.661297,1.21477 0.651123,0.65113 0.651123,0.65112 h 1.882994 1.882993 z m 9.706932,-17.19796 1.77305,-2.70831 -0.023,-10.04169 -0.023,-10.04169 -1.82353,-3.71324 -1.82353,-3.71324 -1.95247,-0.61969 -1.95246,-0.61969 -2.430228,1.59235 -2.430227,1.59235 -1.72803,3.24058 -1.728029,3.24058 -0.04278,6.5 -0.04278,6.5 0.749708,2.67293 0.749708,2.67293 2.589186,3.07707 2.589185,3.07707 h 2.888057 2.88805 z m -3.18424,-13.22259 -0.57533,-0.9309 1.01631,-0.62812 1.01631,-0.62811 v 1.55901 1.55902 h -0.44098 -0.44098 z m -59.347759,7.4309 0.03705,-3 0.460988,1.76903 0.460988,1.76903 -0.498042,1.23097 -0.498042,1.23097 0.03705,-3 z m 1.835677,-36 v -2 l 0.969374,-1.5 0.969374,-1.5 v 2 2 l -0.969374,1.5 -0.969374,1.5 z m 415.358731,98.16857 6.88936,-5.06451 6.45832,-7.55203 6.45832,-7.55203 5.352,-11 5.35199,-11 1.45161,-6 1.45161,-6 0.57925,-4 0.57924,-4 -1.08205,2.5 -1.08204,2.5 -2.96476,6 -2.96475,6 -3.29899,4.78264 -3.29899,4.78264 -3.40668,3.79482 -3.40668,3.79482 -1.8844,2.92254 -1.8844,2.92254 -2.47592,2.5 -2.47591,2.5 -2.60603,4 -2.60603,4 -1.26171,2.86481 -1.26172,2.86481 v 2.31261 2.31261 l -2.39167,1.82258 -2.39167,1.82258 -1.85833,1.27042 -1.85833,1.27042 2.5,-1.15388 2.5,-1.15388 z m -55.04223,-8.44429 2.94381,-1.72428 1.77212,-2.5 1.77212,-2.5 0.66908,-2.31077 0.66909,-2.31076 -5.05343,2.56076 -5.05343,2.56077 h -3.39839 -3.39838 l -2.38486,-1.86968 -2.38486,-1.86968 -3.29127,-0.71884 -3.29127,-0.71884 0.64734,2.5792 0.64734,2.5792 -1.68085,0.64501 -1.68085,0.645 -5.973,-1.80848 -5.97299,-1.80847 -0.51124,-0.82721 -0.51124,-0.82721 h -2.47617 -2.47617 l 1.00904,1.88541 1.00904,1.88541 5.43914,3.61029 5.43914,3.6103 5.33701,0.94742 5.337,0.94743 6.95166,-0.46885 6.95166,-0.46886 z m -249.29427,-13.09663 1.20713,-8.50395 -0.67888,-9.85689 -0.67888,-9.85689 -0.83877,-2.20496 -0.83878,-2.20496 0.0298,16.5 0.0298,16.5 -0.70043,5.5 -0.70043,5.5 0.98118,-1.4342 0.98119,-1.4342 1.20714,-8.50395 z m 8.80657,3.87235 v -1.5 l -0.85943,2 -0.85943,2 v 1.5 1.5 l 0.85943,-2 0.85943,-2 z m 240.06345,-0.46012 2.82355,-1.46012 0.71012,0.71012 0.71012,0.71012 -0.20176,-1 -0.20175,-1 0.19493,-0.5 0.19493,-0.5 0.29137,-1.5 0.29137,-1.5 -7.11788,-0.14782 -7.11788,-0.14781 3.5,0.76617 3.5,0.76618 -3.08333,0.13164 -3.08334,0.13164 -0.67581,0.67581 -0.67581,0.67582 2.18346,2.32418 2.18346,2.32419 h 1.37534 1.37535 z m 13.02409,-10.87779 -0.44697,-0.39852 -2.41401,3.11821 -2.41401,3.11822 2.86098,-2.7197 2.86098,-2.71969 z m -75.02227,-21.41209 1.00179,-3.75 0.59421,-8 0.5942,-8 -0.88241,-4.5 -0.88241,-4.5 -0.76675,5.5 -0.76675,5.5 -1.97244,8.01619 -1.97243,8.01619 1.03939,2.73381 1.0394,2.73381 h 0.98621 0.9862 z m -80.7369,-6.57768 3.3122,-2.21219 1.82731,-3.48006 1.82731,-3.48007 -0.61244,-12.5 -0.61244,-12.5 -0.73008,-3.98923 -0.73009,-3.98924 -1.55157,-0.2988 -1.55156,-0.29881 -2.76548,2.17532 -2.76547,2.17532 0.5587,5.61272 0.5587,5.61272 0.27356,10.5 0.27355,10.5 -4.19544,-0.0823 -4.19545,-0.0823 -1.55455,-1.29016 -1.55456,-1.29017 -0.0153,-8.12755 -0.0153,-8.12756 -0.87288,-1.37812 -0.87288,-1.37811 -1.11181,0.68713 -1.1118,0.68713 v 1.51054 1.51053 l -2.25,-0.31955 -2.25,-0.31955 -0.5,-4.92245 -0.5,-4.92246 -1.37804,-0.45356 -1.37804,-0.45356 0.68982,10.87602 0.68983,10.87601 1.08364,3.5 1.08365,3.5 1.93472,2.5 1.93473,2.5 3.16984,1.65551 3.16985,1.65551 4.6878,0.0368 4.6878,0.0367 3.3122,-2.2122 z m -232.930335,-18.92232 0.541091,-13.25 2.18356,-10.5 2.183559,-10.5 3.404755,-9.889341 3.404754,-9.88934 2.51241,-3.29394 2.512409,-3.29394 v -1.01703 -1.01703 l 1.332045,-0.79969 1.332046,-0.79969 5.167954,-7.88856 5.167955,-7.88855 v -1.64275 -1.64275 l 5.75,-5.61464 5.75,-5.61465 3.828809,-1.9162 3.828809,-1.9162 -1.563456,-1.29755 -1.563457,-1.29756 -8.361777,-0.52167 -8.361778,-0.52167 -5.403575,1.78487 -5.403575,1.78488 -2.5,1.54823 -2.5,1.54824 -3.792848,2.91623 -3.792847,2.91623 -4.028061,5.93158 -4.02806,5.93158 -1.978924,5.70046 -1.978925,5.70045 -1.559027,7 -1.559027,7 0.0528,16 0.0528,16.000001 1.589829,10.5 1.589829,10.5 1.038254,3.87434 1.038254,3.87435 0.903223,2.37565 0.903222,2.37566 h 0.882937 0.882937 z m 453.129155,12.43346 0.60189,-0.97389 -1.24425,-0.39281 -1.24426,-0.39281 -15.2523,0.37979 -15.25231,0.37979 0.40942,0.66245 0.40941,0.66244 15.48525,0.32447 15.48525,0.32446 z m -458.703503,-4.37096 -0.525219,-1.3125 -0.07895,1.91667 -0.07895,1.91666 0.604167,-0.60416 0.604166,-0.60417 z m 472.006213,-4.5625 -0.45733,-1.75 v 3.5 3.5 l 0.45733,-1.75 0.45732,-1.75 z m -165.68095,-7.75266 2.01646,-0.64 2.48758,-3.6608 2.48758,-3.66081 v -4.57152 -4.57152 l -2.52225,-5.06149 -2.52224,-5.06149 -2.13159,-1.88486 -2.13159,-1.884851 3.13067,4.368061 3.13067,4.36806 0.63758,3.39861 0.63758,3.3986 -1.25527,3.03049 -1.25527,3.0305 -2.80431,1.45016 -2.80432,1.45017 -1.55483,-2.21983 -1.55483,-2.21983 v -1.44416 -1.44416 l -0.53966,0.53966 -0.53967,0.53966 1.18843,9.26688 1.18843,9.26688 1.34719,-2.5712 1.34719,-2.57121 z m 165.68095,-4.24734 -0.45733,-1.75 v 3.5 3.5 l 0.45733,-1.75 0.45732,-1.75 z m -83.79894,-2.91385 5.39039,-2.71667 1.98971,-4.49805 1.9897,-4.49806 -0.55161,-7.29358 -0.55161,-7.293581 -3.51262,-7.2681 -3.51261,-7.26811 -5.27131,-5 -5.27132,-5 4.27713,4.80542 4.27713,4.80543 2.4035,5.18772 2.40351,5.18772 0.61191,4.08051 0.61191,4.080521 -1.50832,3.60992 -1.50832,3.60992 -3.32878,1.77227 -3.32878,1.77226 -17.80238,0.54415 -17.80239,0.54416 -1.3611,-0.5 -1.3611,-0.5 -8.68444,-7 -8.68443,-7.000001 -6.65208,-5.91083 -6.65208,-5.91082 -4.46304,-2.85012 -4.46305,-2.85012 -6.63265,-2.13619 -6.63265,-2.13619 -2.75983,0.69267 -2.75984,0.69268 -0.5111,1.95446 -0.5111,1.95446 h -1.70318 -1.70318 l -3.85996,-8.12853 -3.85996,-8.12853 -2.00879,-1.87147 -2.00879,-1.87147 h -1.21357 -1.21357 l 1.49379,4.75 1.49379,4.75 1.76172,7 1.76172,7 -0.47016,1.27552 -0.47017,1.27553 -1.13321,-0.89514 -1.13322,-0.89513 -3.70776,-0.66778 -3.70776,-0.66778 -2.72054,-1.41143 -2.72054,-1.41143 -1.0338,0.63892 -1.0338,0.63893 -3.14585,-0.21187 -3.14585,-0.21186 -5.06005,-2.44104 -5.06004,-2.44105 -0.5822,-0.94201 -0.58219,-0.94202 -4.24981,0.48634 -4.24981,0.48634 -2.91513,0.92402 -2.91513,0.92403 -1.83893,-1.66421 -1.83893,-1.66421 -2.30997,1.05249 -2.30997,1.05249 -1.66404,-0.93124 -1.66405,-0.93125 -2.47891,1.62425 -2.47892,1.62425 -2.15781,-1.51139 -2.15781,-1.51139 -1.39794,0.53643 -1.39793,0.53644 -1.23726,-0.94829 -1.23727,-0.94829 -4.5,-0.20803 -4.5,-0.20803 -8,-1.88525 -8,-1.88524 -7.5,-1.04955 -7.5,-1.04955 -6,-0.0242 -6,-0.0242 -3.94383,-0.035 -3.94383,-0.035 -1.21047,-1.0046 -1.21047,-1.0046 -6.81259,-10.16815 -6.81258,-10.16814 -6.42642,-6.81234 -6.42642,-6.81235 -7.28442,-4.87212 -7.28443,-4.87212 -5.32227,-1.81262 -5.322269,-1.81262 -8.5,-0.0239 -8.499998,-0.0239 -6.826375,3.20403 -6.826374,3.20403 0.564829,0.91391 0.564829,0.91391 6.349445,1.71872 6.349444,1.71871 1.912101,-0.44715 1.912101,-0.44704 -2.8151,-1.15739 -2.815099,-1.15739 -3.684901,-0.0153 -3.6849,-0.0153 -1.466116,-0.92727 -1.466115,-0.92727 2.966115,-1.14612 2.966116,-1.14612 6.476702,-1.0248 6.476702,-1.0248 8.097314,0.425 8.097309,0.42501 6.81431,3.74561 6.81431,3.74561 4.98369,4.19289 4.98368,4.19289 6.43375,8 6.43375,8 7.06992,14.26866 7.06992,14.26866 1.12432,0.73134 1.12432,0.73134 12,1.18087 12,1.18087 6.74149,1.02939 6.74149,1.0294 1.98705,1.06343 1.98704,1.06343 9.47054,0.89601 9.47053,0.896 2.05626,-0.53773 2.05625,-0.53772 1.48935,1.23605 1.48935,1.23605 1.94231,-0.50793 1.94231,-0.50792 6.81302,2.43381 6.81301,2.43381 4.5,1.57378 4.5,1.573781 0.64063,1.01437 0.64063,1.01436 5.35937,0.94561 5.35937,0.9456 4.16522,-0.11935 4.16522,-0.11935 0.6438,1.04169 0.64379,1.04169 h 1.786 1.78599 l 1.80998,2 1.80998,2 2.09501,0.0318 2.09501,0.0318 1.94103,1.46812 1.94103,1.46812 0.7135,-1.15446 0.71349,-1.15447 2.47332,2.66875 2.47332,2.66876 0.61041,3.05206 0.61041,3.05206 1.01175,-0.62529 1.01174,-0.62529 v -1.5 -1.5 l 0.9309,0.57532 0.9309,0.57533 0.6382,-1.03261 0.6382,-1.03262 0.9309,0.57533 0.9309,0.57532 v -5.05901 -5.05902 h 2.13929 2.13929 l -0.61368,-4.75 -0.61368,-4.750001 -0.59983,-2.5 -0.59983,-2.5 1.57422,1.94113 1.57422,1.94113 0.0153,2.05887 0.0153,2.058871 1.04536,1.5 1.04536,1.5 -0.66757,-3.37492 -0.66756,-3.374921 1.35689,-0.85977 1.35689,-0.85976 -1.25,-0.0153 -1.24997,-0.0153 v -1.52104 -1.52104 l -3.16152,-6.4841 -3.16153,-6.4841 0.57178,-0.57178 0.57178,-0.57178 6.33974,1.73363 6.33975,1.73364 2.8046,1.3972 2.80461,1.3972 7.09222,6.50854 7.09223,6.50853 5.79031,3.932121 5.7903,3.93212 6.12046,5.66647 6.12046,5.66646 1.56299,3.08897 1.563,3.08896 1.49111,1.70216 1.4911,1.70217 15.13831,-0.42576 15.1383,-0.42576 z M 296.69754,90.377419 295.2788,86.981909 v -1.53212 -1.53212 h 1.9433 1.94329 l 1.55671,2.22251 1.5567,2.2225 v 2.16086 2.16087 l -2.08126,0.54426 -2.08127,0.54426 z m -159.52985,30.651361 -1.12013,-3.2132 -0.38889,0.38889 -0.38889,0.38888 1.12013,3.21321 1.12013,3.2132 0.38889,-0.38889 0.38889,-0.38888 z m 343.59258,-11.85648 -1.73031,-9.609991 -3.16204,-3.25584 -3.16203,-3.25584 -9.96355,0.11237 -9.96354,0.11237 -4.88143,-1.71161 -4.88142,-1.7116 -4.11858,0.20076 -4.11857,0.20075 -2.04321,0.72863 -2.04321,0.72863 -3.08819,-1.29849 -3.0882,-1.29849 -3.73824,-5.63191 -3.73825,-5.6319 -4.40424,-5.71624 -4.40424,-5.71623 -5.72611,-4.79105 -5.72611,-4.79106 -6.2547,-3.09854 -6.25471,-3.09853 -9.28918,-0.48589 -9.28918,-0.48588 -3.95611,2.04074 -3.95612,2.04075 -7.25,6.13318 -7.25,6.13318 v 0.95155 0.95155 l 8.75,-0.20124 8.75,-0.20125 -7.75,-0.34082 -7.75,-0.34082 v -0.83546 -0.83545 l 5.75,-4.76617 5.75,-4.76617 4,-1.78486 4,-1.78486 6.05682,-0.67876 6.05682,-0.67876 6.34039,1.62433 6.34039,1.62433 5.63924,3.42566 5.63924,3.42566 6.0849,6.33679 6.0849,6.33679 3.4747,5.47053 3.4747,5.47053 4.72186,9.18546 4.72185,9.185461 2.68209,0.5662 2.6821,0.5662 2.92993,-0.55384 2.92992,-0.55385 0.797,-0.49257 0.797,-0.49257 4.23788,1.14114 4.23788,1.14114 2.42005,1.90361 2.42006,1.90362 h 2.24269 2.2427 l 1.24489,1.5 1.24489,1.5 h 1.57808 1.57807 l 5.97228,1.75 5.97227,1.75 2.02261,3.41378 2.02261,3.41378 0.41049,-1.23147 0.41049,-1.23147 z m -250.48147,6.62734 v -1 l -1,0.61803 -1,0.61803 v 1 1 l 1,-0.61803 1,-0.61803 z m 79.5,-3.88197 -0.69032,-3.14301 -0.41179,0.41178 -0.41178,0.41179 0.63889,3.19444 0.63889,3.19444 0.46322,-0.46321 0.46321,-0.46322 z m -306.837716,-5.25 -0.504386,-1.25 v 2.5 2.5 l 0.504386,-1.25 0.504386,-1.25 z m 305.020826,-0.9375 -0.52522,-1.3125 -0.0789,1.91667 -0.079,1.91666 0.60417,-0.60416 0.60416,-0.60417 -0.52522,-1.3125 z M 2.971794,80.186699 l -0.460988,-1.76903 -0.03705,3 -0.03705,3 0.498042,-1.23097 0.498042,-1.23097 z m 110.883406,-1.51209 -1.58342,-2.41659 0.75351,-0.8305 0.75351,-0.8305 -1.03238,0.58485 -1.03238,0.58484 -2.36188,-3.44693 -2.36187,-3.44693 -0.39389,0.39388 -0.39388,0.39389 4.21914,6.11419 4.21913,6.1142 0.39891,-0.39891 0.39891,-0.3989 z m -109.893283,-4.94444 -0.525219,-1.3125 -0.07895,1.91667 -0.07895,1.91666 0.604167,-0.60416 0.604167,-0.60417 z m 375.046053,-6.41667 -0.60417,-0.60416 -1.3125,0.52522 -1.3125,0.52522 1.91667,0.0789 1.91666,0.0789 -0.60416,-0.60417 z m 50.00695,-4.48791 11.23613,-4.26901 -0.35343,-0.35343 -0.35343,-0.35343 -4.52613,1.01433 -4.52613,1.01433 -8.60703,3.11439 -8.60703,3.11438 0.61333,0.99238 0.61332,0.99238 1.63714,-0.49866 1.63714,-0.49866 z m -57.97446,3.405 -1.73834,-0.45508 -2.26166,0.4349 -2.26166,0.4349 4,0.0202 4,0.0202 -1.73834,-0.45508 z M 38.778803,225.91767 l -0.618034,-1 h 1 1 l 0.618034,1 0.618034,1 h -1 -1 z m -2.70349,-5.00632 -1.703489,-2.99368 h 0.385395 0.385396 l 2.136188,3 2.136188,3 -0.818094,-0.006 -0.818094,-0.006 -1.70349,-2.99367 z m -4.607904,-8.54237 -2.188606,-4.50481 0.04656,-0.72325 0.04656,-0.72325 2.522307,4.8478 2.522308,4.8478 -0.380263,0.38026 -0.380262,0.38026 -2.188607,-4.50481 z m 110.951961,-3.45131 v -1.5 l 0.85943,-2 0.85943,-2 v 1.5 1.5 l -0.85943,2 -0.85943,2 z m 1.93838,-7.58333 0.0789,-1.91667 0.52522,1.3125 0.52522,1.3125 -0.60416,0.60417 -0.60417,0.60416 0.0789,-1.91666 z m 1.15305,-5.41667 v -3.5 l 0.45733,1.75 0.45732,1.75 -0.45732,1.75 -0.45733,1.75 z m 1.16256,-18.5 0.003,-14 0.346,7.29375 0.346,7.29375 -0.34884,6.70625 -0.34883,6.70625 0.003,-14 z m -129.31561,-8.08333 0.07895,-1.91667 0.525219,1.3125 0.525219,1.3125 -0.604166,0.60417 -0.604169,0.60416 0.07895,-1.91666 z m -1.254443,-4.74249 -0.576149,-2.82583 0.969603,0.96961 0.969602,0.9696 -0.393453,1.85622 -0.393453,1.85622 z m 128.790873,-8.28956 -0.66607,-5.66726 0.44287,-0.44287 0.44287,-0.44287 0.70341,5.62992 0.70341,5.62992 -0.4802,0.48021 -0.48021,0.4802 z m -130.156496,3.54885 -0.659152,-1.06653 0.476597,-0.4766 0.476597,-0.4766 0.592154,1.54313 0.592153,1.54313 h -0.409598 -0.409598 z m -1.835342,-4.47213 -0.623539,-1.62491 0.06339,-1.16822 0.06339,-1.16821 0.958096,2.39518 0.958097,2.39519 -0.397945,0.39794 -0.397944,0.39795 -0.623538,-1.62492 z m -6.164657,-21.52787 -0.659153,-1.06653 0.476597,-0.4766 0.476597,-0.4766 0.592154,1.54313 0.592154,1.54313 H 7.806436 7.396837 Z m 117.784375,-36.407031 -4.1873,-8.44299 1.12653,-0.69624 1.12653,-0.69623 -0.71353,1.15451 -0.71352,1.15451 h 1.04644 1.04645 l 3.58791,7.12465 3.58792,7.124661 -0.86006,0.86006 -0.86007,0.86007 z m -25.318939,-38.27644 -2.42432,-2.75 2.75,2.42431 2.749999,2.42432 v 0.32568 0.32569 h -0.32569 -0.32568 z m -11.06503,-11.12147 -6.640713,-5.8367 -3.225964,-2.29709 -3.225963,-2.29709 -5.133324,-2.83071 -5.133324,-2.83071 0.79966,-0.0181 0.79966,-0.0181 3.20034,1.64453 3.20034,1.64453 5.5,3.74627 5.5,3.74627 5.999998,5.56411 6,5.56412 -0.5,0.0277 -0.5,0.0277 -6.64071,-5.83671 z m -37.859288,-18.12853 -7.5,-0.63968 7,-0.0805 7,-0.0805 2.5,0.80068 2.5,0.80064 -2,-0.0805 -2,-0.0805 z"
     style="fill:#000000" />
</svg>
