<?xml version="1.0" encoding="UTF-8" standalone="no"?>
<svg
   xmlns:dc="http://purl.org/dc/elements/1.1/"
   xmlns:cc="http://creativecommons.org/ns#"
   xmlns:rdf="http://www.w3.org/1999/02/22-rdf-syntax-ns#"
   xmlns:svg="http://www.w3.org/2000/svg"
   xmlns="http://www.w3.org/2000/svg"
   xmlns:sodipodi="http://sodipodi.sourceforge.net/DTD/sodipodi-0.dtd"
   xmlns:inkscape="http://www.inkscape.org/namespaces/inkscape"
   sodipodi:docname="icon.svg"
   inkscape:version="1.0beta2 (2b71d25, 2019-12-03)"
   id="svg118"
   version="1.1"
   viewBox="0 0 146.49913 54.70557"
   height="54.70557mm"
   width="146.49913mm">
  <defs
     id="defs112" />
  <sodipodi:namedview
     inkscape:pagecheckerboard="true"
     fit-margin-bottom="0"
     fit-margin-right="0"
     fit-margin-left="0"
     fit-margin-top="0"
     inkscape:window-maximized="1"
     inkscape:window-y="23"
     inkscape:window-x="48"
     inkscape:window-height="1005"
     inkscape:window-width="1632"
     showgrid="false"
     inkscape:document-rotation="0"
     inkscape:current-layer="layer1"
     inkscape:document-units="mm"
     inkscape:cy="445.54363"
     inkscape:cx="295.86812"
     inkscape:zoom="0.35"
     inkscape:pageshadow="2"
     inkscape:pageopacity="0.0"
     borderopacity="1.0"
     bordercolor="#666666"
     pagecolor="#ffffff"
     id="base" />
  <metadata
     id="metadata115">
    <rdf:RDF>
      <cc:Work
         rdf:about="">
        <dc:format>image/svg+xml</dc:format>
        <dc:type
           rdf:resource="http://purl.org/dc/dcmitype/StillImage" />
        <dc:title></dc:title>
      </cc:Work>
    </rdf:RDF>
  </metadata>
  <g
     transform="translate(-27.551561,-30.283247)"
     id="layer1"
     inkscape:groupmode="layer"
     inkscape:label="Layer 1">
    <path
       inkscape:connector-curvature="0"
       id="path186"
       d="m 140.88307,84.854477 -3.09304,0.13434 -2.11667,-0.29345 -2.11667,-0.29344 -8.64305,-1.63234 -8.64306,-1.63235 -0.99706,-0.1509 -0.99707,-0.15091 -15.407102,-2.83286 -15.407103,-2.83286 -6.526389,-1.21567 -6.526389,-1.21567 -16.580557,-3.01756 -16.580556,-3.01757 -3.704167,-0.75014 -3.704167,-0.75014 -0.467859,-0.36692 -0.46786,-0.36692 -0.297938,0.48208 -0.297939,0.48207 -0.18559,-1.21031 -0.18559,-1.21032 -0.192841,-7.47961 -0.192842,-7.4796 0.335324,-0.88197 0.335323,-0.88197 0.985295,-0.50736 0.985295,-0.50736 19.402779,-7.48496 19.402779,-7.48496 2.998611,-0.0108 2.998611,-0.0108 28.222222,4.12044 28.22223,4.12044 19.57916,2.81104 19.57917,2.81103 1.23472,0.39514 1.23473,0.39515 0.49144,0.39188 0.49144,0.39189 -0.30214,6.00033 -0.30215,6.00033 -0.0311,2.46945 -0.0311,2.46944 -0.26442,0.77575 -0.26443,0.77575 -0.42292,-0.15903 -0.42291,-0.15902 -1.08068,1.01531 -1.08068,1.01532 -6.57567,4.98254 -6.57568,4.98255 h -0.20972 -0.20973 l -5.10713,3.87595 -5.10713,3.87596 -1.04348,0.5396 -1.04347,0.5396 z m -1.85832,-1.31725 h 2.29305 l -1.14652,-0.14229 -1.14653,-0.14228 -1.14653,0.14228 -1.14653,0.14229 z m -3.88056,-0.29556 h 0.88195 l -0.44098,-0.17794 -0.44097,-0.17794 -0.44097,0.17794 -0.44097,0.17794 z m 7.05556,0.0557 h 0.47037 l -0.23519,-0.23519 -0.23518,-0.23518 -0.23519,0.23518 -0.23518,0.23519 z m -9.17222,-0.40848 h 0.88194 l -0.44097,-0.17794 -0.44097,-0.17794 -0.44098,0.17794 -0.44097,0.17794 z m 6.83177,-0.10536 2.06927,-0.13221 0.33366,-0.33365 0.33365,-0.33365 0.2071,-7.02575 0.2071,-7.02574 -2.61003,0.12424 -2.61002,0.12424 -4.40973,-0.87272 -4.40972,-0.87272 -6.87917,-1.09788 -6.87916,-1.09788 -7.58473,-1.22787 -7.58472,-1.22787 -21.519444,-3.68838 -21.519445,-3.68838 -6.077829,-1.0772 -6.077831,-1.07719 H 44.42909 44.009928 l 0.206607,-0.20661 0.206608,-0.2066 3.291772,0.54937 3.291773,0.54937 19.22639,3.15311 19.22639,3.1531 12.288152,2.00186 12.28815,2.00185 0.20607,-0.20606 0.20605,-0.20606 -0.49976,-0.003 -0.49977,-0.003 -8.99584,-1.55162 -8.995829,-1.55163 -2.42059,-0.42862 -2.42058,-0.42863 0.480307,-0.30431 0.480307,-0.30431 0.881944,0.0194 0.881942,0.0194 -0.690387,0.27003 -0.690389,0.27002 1.695236,0.23236 1.69524,0.23235 0.935427,-0.20293 0.93543,-0.20293 -0.52917,0.41053 -0.529157,0.41053 1.330817,-0.18471 1.33082,-0.18471 -0.23832,0.38561 -0.23832,0.38561 1.4911,-0.23844 1.491102,-0.23844 -0.22317,0.3611 -0.22317,0.3611 h 0.39943 0.39944 l 14.86694,2.49069 14.86694,2.49068 0.62993,-0.16473 0.62993,-0.16473 -0.2309,0.37361 -0.2309,0.3736 1.55333,-0.23512 1.55333,-0.23513 -0.51503,0.33619 -0.51503,0.33618 2.7004,-0.20423 2.7004,-0.20423 1.22115,0.57947 1.22115,0.57948 0.82682,-0.33128 0.82681,-0.33128 -0.70556,-0.0405 -0.70555,-0.0405 1.41111,-0.57426 1.41111,-0.57426 11.28889,-7.57518 11.28889,-7.57518 2.29305,-1.59993 2.29306,-1.59993 0.15287,-0.11611 0.15287,-0.11611 -0.37827,-0.37826 -0.37826,-0.37827 -1.67961,-0.15691 -1.67961,-0.1569 -0.29985,-0.18533 -0.29986,-0.18517 v 0.54999 0.54998 h -0.50835 -0.50835 l -0.21957,-0.35527 -0.21956,-0.35527 0.60749,-0.23311 0.6075,-0.23312 -11.78583,-1.68928 -11.78583,-1.68927 -34.20525,-4.95429 -34.20524,-4.95428 h -1.090176 -1.090175 l -0.46743,0.44098 -0.467431,0.44097 -0.161688,-0.44097 -0.161693,-0.44098 -1.646294,-0.004 -1.646297,-0.003 -19.843752,7.65322 -19.843751,7.65321 v 0.27655 0.27654 l 0.833321,0.45224 0.83332,0.45224 -0.711036,0.70556 -0.711036,0.70555 0.215086,-0.60606 0.215086,-0.60607 -0.308664,-0.19076 -0.308664,-0.19077 -0.226629,1.03184 -0.226629,1.03184 0.242127,1.29065 0.242127,1.29065 0.274331,-0.29094 0.274331,-0.29093 0.169709,-0.70556 0.169708,-0.70556 0.08266,1.05834 0.08266,1.05833 0.296502,-1.05833 0.296502,-1.05834 -0.164764,2.46944 -0.164764,2.46945 -0.03439,3.27529 -0.03439,3.27529 -0.539748,0.53975 -0.539748,0.53974 0.337259,0.33726 0.337258,0.33726 17.084924,3.18469 17.084926,3.18469 0.617848,-0.16034 0.617848,-0.16033 -0.177207,0.28672 -0.177207,0.28673 1.747961,0.24041 1.747964,0.24041 0.423542,-0.26177 0.423545,-0.26176 -0.281009,0.45468 -0.281008,0.45468 1.089815,-0.15995 1.089812,-0.15995 -0.211762,0.34264 -0.211762,0.34263 1.534975,-0.20587 1.534975,-0.20589 -0.439621,0.27171 -0.439625,0.2717 3.563634,0.62596 3.563635,0.62597 0.216316,-0.21632 0.216313,-0.2163 -1.028933,-0.0278 -1.028937,-0.0278 0.399708,-0.16418 0.399708,-0.1642 17.591962,3.18963 17.591962,3.18962 1.02025,0.21645 1.02025,0.21644 -0.75567,-0.81111 -0.75567,-0.81111 v -0.22745 -0.22746 h 0.52917 0.52917 v 0.27021 0.2702 l 0.61736,0.19136 0.61736,0.19135 6.70278,1.22166 6.70278,1.22167 0.66758,-0.0663 0.66759,-0.0663 0.1438,0.4057 0.1438,0.40569 -0.98777,0.36021 -0.98778,0.3602 0.70555,0.0428 0.70556,0.0428 2.99861,0.49979 2.99861,0.4998 2.06928,-0.13221 z m -10.49437,-3.36672 h -1.52111 l -0.75954,-0.65874 -0.75953,-0.65874 v -0.44074 -0.44074 l 0.79375,0.25432 0.79375,0.25432 1.14653,0.1782 1.14652,0.1782 v -2.02207 -2.02207 l -0.52714,0.43749 -0.52714,0.43748 -0.86811,-0.16595 -0.8681,-0.16595 -0.15134,0.56542 -0.15132,0.5654 -0.11129,-3.52778 -0.11129,-3.52777 -0.21204,4.05694 -0.21205,4.05695 -0.065,-4.23334 -0.065,-4.23333 0.30897,-0.48784 0.30897,-0.48785 1.9573,0.16232 1.9573,0.16231 0.58294,0.4838 0.58294,0.4838 -0.25058,4.78062 -0.25058,4.78062 -0.32339,0.61736 -0.32339,0.61736 z m 0.31121,-0.35278 h 0.17639 v -0.17639 -0.17639 h -0.17639 -0.17639 v 0.17639 0.17639 z m -1.5875,-0.35278 h 0.47037 l -0.23519,-0.23518 -0.23518,-0.23519 -0.23519,0.23519 -0.23518,0.23518 z m 2.64583,-0.35277 h 0.17639 v -0.17639 -0.17639 h -0.17639 -0.17639 v 0.17639 0.17639 z m -3.88056,-0.35278 h 0.17639 v -0.17639 -0.17639 h -0.17639 -0.17638 v 0.17639 0.17639 z m 1.62843,-3.72946 0.31376,-0.19392 -0.36614,-0.68414 -0.36615,-0.68415 h 0.51815 0.51815 l 0.19982,0.88195 0.19982,0.88194 -0.0882,-0.95619 -0.0882,-0.95619 -0.88195,-0.24336 -0.88194,-0.24337 0.76855,-0.0352 0.76855,-0.0352 0.55437,0.55437 0.55436,0.55436 v -1.96547 -1.96548 h -0.85309 -0.85309 l -0.58302,-0.22373 -0.58302,-0.22372 0.0889,2.42859 0.0889,2.42858 0.32881,0.43709 0.32882,0.43709 0.31376,-0.19392 z m -0.20757,-0.1511 h -0.1445 l -0.23253,-0.37625 -0.23253,-0.37624 0.16813,-0.16814 0.16813,-0.16813 0.2089,0.54438 0.2089,0.54438 z m 2.89308,-1.14653 0.13838,-1.32291 -0.13838,-1.32292 -0.13838,-1.32292 v 2.64584 2.64583 z m -1.31532,-4.55361 h 0.88194 l -0.44097,-0.17794 -0.44097,-0.17794 -0.44098,0.17794 -0.44097,0.17794 z m -10.00372,9.21853 -1.46156,-0.009 -0.99782,-0.60797 -0.99782,-0.60798 0.2413,-5.11528 0.24131,-5.11527 0.28895,-0.30856 0.28896,-0.30855 1.94218,0.24266 1.94217,0.24266 0.4283,0.51607 0.4283,0.51606 -0.24783,4.77816 -0.24783,4.77815 -0.19353,0.50431 -0.19352,0.50431 -1.46156,-0.009 z m -1.28517,-0.69616 h 0.47036 l -0.23518,-0.23519 -0.23518,-0.23518 -0.23519,0.23518 -0.23518,0.23519 z m 1.10878,-0.72792 0.57962,0.0224 0.21413,-0.55802 0.21413,-0.55802 v -3.8517 -3.85171 h -0.85309 -0.85309 l -0.55802,-0.21413 -0.55802,-0.21413 v 1.74772 1.74773 l 0.74369,0.33184 0.74369,0.33184 -0.63335,0.51582 -0.63335,0.51581 0.26333,-0.70555 0.26335,-0.70556 -0.39399,0.39072 -0.39397,0.39072 -0.20476,1.9839 -0.20476,1.98389 0.84242,0.33705 0.84242,0.33706 0.57962,0.0224 z m 1.61273,-1.11785 0.14635,-0.96382 -0.14275,-1.15285 -0.14276,-1.15284 -0.004,2.11666 -0.004,2.11667 0.14635,-0.96382 z m -4.23644,-0.18271 0.15289,-0.79375 -0.15289,-0.79375 -0.15288,-0.79375 v 1.5875 1.5875 z m 0.35588,-4.75618 0.14636,-0.96382 -0.14276,-1.15285 -0.14275,-1.15284 -0.004,2.11666 -0.004,2.11667 0.14636,-0.96382 z m 3.80488,-3.09312 h 0.17639 v -0.17639 -0.17639 h -0.17639 -0.17639 v 0.17639 0.17639 z m -3.52778,-0.35278 h 0.17639 v -0.17639 -0.17639 h -0.17639 -0.17639 v 0.17639 0.17639 z m 1.5875,0 h 0.47037 l -0.23518,-0.23519 -0.23519,-0.23518 -0.23519,0.23518 -0.23518,0.23519 z m -14.52973,9.13431 -1.16888,-0.0379 -8.269609,-1.52829 -8.269602,-1.52829 -0.772269,-0.19383 -0.77227,-0.19383 -0.187138,-0.71562 -0.187138,-0.71562 0.468567,-0.46856 0.468566,-0.46857 2.234057,0.32844 2.234058,0.32845 1.234722,0.097 1.234727,0.097 v 0.0948 0.0948 l 1.05833,0.12502 1.05833,0.12502 0.52917,0.0355 0.52917,0.0355 0.529157,0.20732 0.52917,0.20733 0.70555,0.0848 0.70556,0.0849 3.527782,0.82476 3.52778,0.82476 0.11054,1.14652 0.11055,1.14653 z m -0.13994,-0.34272 0.67615,0.0278 -0.21313,-0.21314 -0.21314,-0.21314 -0.46302,0.18529 -0.46302,0.18529 0.67616,0.0278 z m -2.44005,-0.32492 h 0.17639 v -0.17639 -0.17639 h -0.17639 -0.17639 v 0.17639 0.17639 z m -1.94028,-0.35278 h 0.47037 l -0.23518,-0.23519 -0.23519,-0.23518 -0.235192,0.23518 -0.23518,0.23519 z m -1.940282,-0.35278 h 0.17639 v -0.17639 -0.17639 h -0.17639 -0.17639 v 0.17639 0.17639 z m 5.820842,-0.0768 0.88194,0.005 -1.23472,-0.31149 -1.23472,-0.31149 -7.861569,-1.4416 -7.861568,-1.4416 -0.415964,0.13866 -0.41596,0.13865 4.220584,0.77732 4.220588,0.77732 4.409717,0.83255 4.409722,0.83255 0.88195,0.005 z m -7.937499,-0.27599 h 0.176377 v -0.17639 -0.17639 h -0.176377 -0.17639 v 0.17639 0.17639 z m -2.11667,-0.35278 h 0.17639 v -0.17638 -0.17639 h -0.17639 -0.17639 v 0.17639 0.17638 z m -1.76389,-0.35277 h 0.176388 v -0.17639 -0.17639 h -0.176388 -0.176389 v 0.17639 0.17639 z m -1.940278,-0.35278 h 0.470369 l -0.235183,-0.23519 -0.235186,-0.23518 -0.235187,0.23518 -0.235183,0.23519 z m -1.940278,-0.35278 h 0.176389 v -0.17639 -0.17639 h -0.176389 -0.176389 v 0.17639 0.17639 z m -1.763889,-0.35278 h 0.176389 v -0.17639 -0.17638 h -0.176389 -0.176389 v 0.17638 0.17639 z m -9.172223,-0.0688 -1.058333,-0.013 0.624074,-0.16263 0.624075,-0.16263 0.434258,0.1757 0.434259,0.1757 -1.058333,-0.0131 z m -1.940278,-0.3397 h -0.881944 l 0.440972,-0.17794 0.440972,-0.17794 0.440972,0.17794 0.440973,0.17794 z m 27.340275,-0.77498 -0.70555,0.0513 -2.11667,-0.40404 -2.116672,-0.40404 -0.44097,-0.28541 -0.44097,-0.2854 -0.0352,-0.94932 -0.0352,-0.94932 -0.24489,0.88009 -0.24489,0.8801 -0.601887,0.11591 -0.60189,0.11591 -0.0418,-0.64323 -0.0418,-0.64322 0.0505,-0.29081 0.0505,-0.2908 -0.36152,0.22343 -0.36152,0.22343 v 0.50835 0.50834 h -1.03313 -1.033138 l -0.526016,-0.52601 -0.52602,-0.52602 -0.11654,0.31226 -0.116544,0.31227 -1.411111,-0.23998 -1.411111,-0.23997 0.05189,-1.88427 0.05189,-1.88427 0.460431,-0.28456 0.460428,-0.28456 0.363418,0.2246 0.363421,0.22461 0.711757,0.0537 0.711758,0.0537 0.460975,-0.65435 0.460978,-0.65435 h 0.870664 0.87068 l 0.33156,0.87209 0.33157,0.87209 0.98262,0.23156 0.982617,0.23156 1.05833,0.62927 1.05833,0.62927 1.763892,0.25245 1.76389,0.25245 0.63654,0.33036 0.63653,0.33036 -0.10736,1.47663 -0.10736,1.47663 z m -0.21436,-0.58044 h 0.27316 v -1.04281 -1.04281 l -0.29398,0.18169 -0.29398,0.18168 v -0.37359 -0.3736 h -0.67253 -0.67253 l 0.1741,0.66574 0.17409,0.66574 -0.37947,0.23453 -0.37947,0.23453 0.1964,-0.51181 0.1964,-0.51181 -0.43134,-0.26658 -0.43134,-0.26658 0.26782,0.43333 0.26781,0.43333 -0.830672,-0.46702 -0.83066,-0.46701 -0.17639,-0.17639 -0.17639,-0.17639 -0.44097,-0.0882 -0.44097,-0.0882 0.005,0.79375 0.005,0.79375 0.34198,-0.52916 0.34198,-0.52917 0.005,0.44097 0.005,0.44097 h 0.48597 0.48597 l 0.46272,0.55754 0.462712,0.55753 0.82362,-0.15744 0.82363,-0.15745 0.18879,0.30547 0.18878,0.30546 h 0.27317 z m -0.13841,-0.35277 h -0.17639 v -0.17639 -0.17639 h 0.17639 0.17638 v 0.17639 0.17639 z m -0.70556,-1.41111 h -0.17639 v -0.17639 -0.17639 h 0.17639 0.17639 v 0.17639 0.17639 z m -2.998612,1.05833 h 0.47037 l -0.23518,-0.23519 -0.23519,-0.23518 -0.23519,0.23518 -0.23518,0.23519 z m -6.37082,-1.41111 h 0.373599 v -0.35278 -0.35278 h -0.155568 -0.155571 l -0.218027,0.35278 -0.218028,0.35278 z m 1.653693,0 h 0.065 l -0.1845,-0.70556 -0.18451,-0.70555 h -0.48457 -0.48457 l 0.60412,0.70555 0.60411,0.70556 z m 5.775457,-0.35278 h 0.470372 l -0.23518,-0.23519 -0.235192,-0.23518 -0.23518,0.23518 -0.23519,0.23519 z m -3.704157,-0.35278 h 0.176377 v -0.17639 -0.17639 h -0.176377 -0.17639 v 0.17639 0.17639 z m -5.065128,-0.35278 h 0.327448 l -0.393774,-0.73577 -0.393771,-0.73576 -0.156111,0.15611 -0.156111,0.15611 0.222437,0.57965 0.222437,0.57966 z m 4.359568,-0.35277 h 0.17639 v -0.17639 -0.17639 h -0.17639 -0.17639 v 0.17639 0.17639 z m 1.411107,-0.35278 h 0.17639 v -0.17639 -0.17639 h -0.17639 -0.17639 v 0.17639 0.17639 z m -7.761108,-0.35278 h 0.176389 v -0.17639 -0.17639 H 89.10669 88.930301 v 0.17639 0.17639 z m 0.705556,0 h 0.176389 v -0.17639 -0.17639 h -0.176389 -0.176389 v 0.17639 0.17639 z m 3.175005,0 h 0.17638 v -0.17639 -0.17639 h -0.17638 -0.176394 v 0.17639 0.17639 z m 0.70555,0 h 0.17639 v -0.17639 -0.17639 h -0.17639 -0.17639 v 0.17639 0.17639 z m -1.41111,-0.35278 h 0.176388 v -0.17639 -0.17638 h -0.176388 -0.176389 v 0.17638 0.17639 z m 0.74353,-0.35277 h 0.0968 l 0.20296,-0.32841 0.20296,-0.3284 -0.29973,-0.18524 -0.29974,-0.18525 v 0.51365 0.51365 z m 17.413459,5.64444 h -0.71663 l -0.21216,-0.55288 -0.21216,-0.55288 0.31142,-0.29482 0.31143,-0.29482 0.70556,-0.16971 0.70555,-0.16971 -0.79375,-0.0409 -0.79375,-0.0409 -0.0352,-0.44097 -0.0352,-0.44097 -0.23915,0.85579 -0.23915,0.85579 -0.40736,0.13579 -0.40736,0.13578 -0.39297,-0.73428 -0.39298,-0.73428 0.2679,-0.43348 0.2679,-0.43347 -0.10178,-0.97035 -0.10179,-0.97035 h 0.87914 0.87913 l 0.16043,-0.44097 0.16043,-0.44097 0.66272,0.4016 0.66272,0.4016 -0.0381,0.50297 -0.0381,0.50297 0.74362,-0.0226 0.74363,-0.0226 0.11889,0.84075 0.11888,0.84074 -0.91263,-0.17446 -0.91264,-0.17447 v 0.30386 0.30386 h 0.90648 0.90648 l -0.11273,0.79375 -0.11273,0.79375 -0.79375,-0.028 -0.79375,-0.028 v 0.46898 0.46899 h -0.71663 z m 1.59857,-1.41111 h 0.17639 v -0.17639 -0.17639 h -0.17639 -0.17639 v 0.17639 0.17639 z m -2.23524,-2.32879 0.26414,-0.16325 -0.19872,-0.51787 -0.19873,-0.51787 h -0.11672 -0.11672 l 0.0513,0.68112 0.0513,0.68111 z m 2.23524,0.21212 h 0.17639 v -0.17639 -0.17639 h -0.17639 -0.17639 v 0.17639 0.17639 z m -29.104171,2.6996 -1.234722,0.0538 -2.998612,-0.62864 -2.998611,-0.62863 0.352778,-0.0532 0.352778,-0.0532 -0.617362,-0.35958 -0.617361,-0.35958 v -2.09914 -2.09914 h 0.545109 0.545109 l 3.60003,0.58324 3.60003,0.58323 0.466038,0.36271 0.466037,0.36271 -0.11326,2.14086 -0.113259,2.14087 z m 0.176389,-0.23015 h 0.176389 v -0.17639 -0.17639 h -0.176389 -0.176389 v 0.17639 0.17639 z m -1.940278,-0.35278 h 0.470369 l -0.235183,-0.23519 -0.235186,-0.23518 -0.235187,0.23518 -0.235182,0.23519 z m -1.940278,-0.35278 h 0.176389 v -0.17639 -0.17639 h -0.176389 -0.176389 v 0.17639 0.17639 z m -1.940278,-0.35278 h 0.470369 l -0.235183,-0.23518 -0.235186,-0.23519 -0.235186,0.23519 -0.235183,0.23518 z m 1.5875,-0.35277 h 0.176389 v -0.17639 -0.17639 h -0.176389 -0.176389 v 0.17639 0.17639 z m 3.175,0 h 0.176389 v -0.17639 -0.17639 h -0.176389 -0.176389 v 0.17639 0.17639 z m -1.940278,-0.35278 h 0.47037 l -0.235183,-0.23519 -0.235187,-0.23518 -0.235186,0.23518 -0.235183,0.23519 z m -1.940278,-0.35278 h 0.176389 v -0.17639 -0.17639 H 78.170578 77.99419 v 0.17639 0.17639 z m 4.409723,0 h 0.470369 l -0.235183,-0.23519 -0.235186,-0.23518 -0.235186,0.23518 -0.235183,0.23519 z m -1.763889,-0.35278 h 0.470369 l -0.235183,-0.23518 -0.235186,-0.23519 -0.235186,0.23519 -0.235183,0.23518 z m 3.036355,0 h 0.138645 v -0.52916 -0.52917 H 83.649705 83.308 l 0.203059,0.52917 0.203063,0.52916 z m -5.00603,-0.38063 0.676155,0.0278 -0.213134,-0.21314 -0.213138,-0.21314 -0.463021,0.18529 -0.463021,0.18529 0.676159,0.0278 z m 3.028008,-0.32492 h 0.47037 l -0.235183,-0.23519 -0.235187,-0.23518 -0.235186,0.23518 -0.235183,0.23519 z m -1.478484,-0.35818 0.109012,0.005 -0.218028,-0.35278 -0.218027,-0.35278 h 0.785171 0.78517 l -0.218754,-0.21876 -0.218757,-0.21875 -0.968167,0.24299 -0.968171,0.243 0.510766,0.32314 0.510769,0.32313 0.109016,0.005 z m -1.79329,-0.34738 h 0.49119 l -0.201527,-0.32608 -0.201528,-0.32608 0.621682,-0.16216 0.62168,-0.16217 -0.949319,-0.0409 -0.949321,-0.0409 -0.187618,0.30357 -0.187618,0.30357 0.225595,0.2256 0.225594,0.22559 z m -1.490726,-1.05833 h 0.176389 v -0.17639 -0.17639 h -0.176389 -0.176389 v 0.17639 0.17639 z m -11.237656,3.14086 -1.109567,-0.0341 -6.879167,-1.29262 -6.879167,-1.29263 -0.09658,-0.58268 -0.09658,-0.58268 0.802133,0.17615 0.802135,0.17616 -0.413942,-0.2993 -0.413943,-0.2993 -0.243804,-2.15497 -0.243809,-2.15496 0.460541,-0.28463 0.460541,-0.28463 0.12132,0.36396 0.121321,0.36397 0.792677,-0.15153 0.792678,-0.15153 6.282581,1.08371 6.282584,1.08371 0.277435,0.17147 0.277435,0.17146 0.0064,3.00457 0.0064,3.00457 -1.109571,-0.0341 z m 0.125155,-0.37434 h 0.881945 l -0.440972,-0.17794 -0.440973,-0.17794 -0.440972,0.17794 -0.440972,0.17794 z m -2.051438,-0.33407 0.594396,0.037 0.90491,-0.34404 0.90491,-0.34405 v -1.21826 -1.21825 l -0.554365,-0.55437 -0.554366,-0.55436 -0.94494,-0.0154 -0.94494,-0.0154 -2.116667,-0.47763 -2.116667,-0.47762 0.705556,-0.0292 0.705556,-0.0292 2.818461,0.49659 2.818466,0.49658 0.150749,-0.15075 0.150749,-0.15075 -0.148096,-0.1481 -0.1481,-0.14809 -6.186714,-1.08663 -6.18671,-1.08664 H 53.37074 52.940986 l 0.430608,0.68951 0.430607,0.68951 -0.267271,0.26727 -0.267275,0.26728 -0.601317,-0.37542 -0.601317,-0.37542 v 1.26008 1.26007 l 2.116667,0.40638 2.116667,0.40639 -0.529167,0.05 -0.529166,0.05 -0.881945,0.20218 -0.881945,0.20217 0.529167,-0.37798 0.529167,-0.37797 -0.881945,0.0194 -0.881944,0.0194 -0.645862,0.2544 -0.645859,0.25441 2.610429,0.43863 2.610432,0.43863 0.857652,-0.36646 0.857653,-0.36645 -1.5875,0.1792 -1.5875,0.1792 0.881694,-0.37535 0.881694,-0.37535 3.499471,0.6147 3.499474,0.6147 -1.382554,0.45849 -1.382557,0.45848 1.234722,-0.19282 1.234723,-0.19283 1.234722,-0.15715 1.234722,-0.15715 -1.411111,0.49569 -1.411111,0.49568 0.594395,0.037 z m -9.766618,-5.25467 h -0.176389 v -0.17639 -0.17639 h 0.176389 0.176389 v 0.17639 0.17639 z m 4.056945,-0.0557 h -0.881945 l 0.440973,-0.17794 0.440972,-0.17794 0.440972,0.17794 0.440972,0.17794 z m -1.969675,-0.32493 -0.676159,-0.0278 0.463021,-0.18528 0.463021,-0.18529 0.213138,0.21313 0.213134,0.21314 z m -1.411111,-0.35278 -0.676159,-0.0278 0.463021,-0.18528 0.463021,-0.18529 0.213138,0.21314 0.213134,0.21313 z m 5.144675,5.25956 0.881944,0.0104 0.705556,-0.30319 0.705555,-0.30319 -0.705555,0.0104 -0.705556,0.0104 -0.881944,0.28245 -0.881945,0.28245 0.881945,0.0104 z m -1.940278,-0.35278 0.705555,-0.0104 0.881945,-0.28245 0.881945,-0.28245 -0.881945,-0.0104 -0.881945,-0.0104 -0.705555,0.30319 -0.705556,0.30319 0.705556,-0.0104 z m -6.291203,-5.70208 0.235183,-0.23518 -0.235183,-0.23519 -0.235186,-0.23518 v 0.47037 0.47037 z m 20.89904,7.09533 -0.561608,0.10808 -0.387565,-0.46698 -0.387562,-0.46699 -0.0037,-1.75301 -0.0037,-1.753 0.07097,-2.08496 0.07097,-2.08496 0.367044,-0.12465 0.367041,-0.12467 0.595291,0.44573 0.595291,0.44573 0.01499,2.11667 0.01499,2.11666 -0.09538,1.75914 -0.09538,1.75913 -0.561608,0.10808 z m -0.849503,-3.80274 h 0.176389 v -0.17638 -0.17639 h -0.176389 -0.176389 v 0.17639 0.17638 z m 0.853846,-0.35277 h 0.283037 l -0.183571,-0.96028 -0.183568,-0.96028 -0.252533,0.69569 -0.252536,0.6957 0.153067,0.26458 0.153063,0.26459 z m -0.324679,-2.11667 h 0.352778 v -0.70556 -0.70555 h -0.352778 -0.352778 v 0.70555 0.70556 z m 65.372905,3.50542 -0.2854,-0.0224 -0.79375,-0.31905 -0.79375,-0.31905 v -0.13883 -0.13884 l 0.88716,0.16959 0.88715,0.16959 0.192,0.31065 0.19199,0.31066 -0.2854,-0.0224 z m 2.10443,0.0224 h -0.91992 l 0.14698,-0.12676 0.147,-0.12676 0.9997,-0.24016 0.99969,-0.24015 -0.22677,0.36691 -0.22676,0.36692 z m -56.542973,-0.47613 -0.880195,0.053 -3.283776,-0.59102 -3.283775,-0.59102 0.205496,-0.2055 0.205493,-0.20549 -0.537689,-0.44625 -0.537694,-0.44624 v -1.69988 -1.69987 l 0.328782,-0.2032 0.328785,-0.2032 3.05905,0.53346 3.059049,0.53345 0.291959,-0.18044 0.291955,-0.18044 0.221587,0.35853 0.221583,0.35853 h 0.671604 0.671601 l -0.07681,2.38125 -0.07681,2.38125 z m 0.178138,-0.22943 h 0.176389 v -0.17639 -0.17639 h -0.176389 -0.176388 v 0.17639 0.17639 z m -1.940277,-0.35278 h 0.470369 l -0.235183,-0.23518 -0.235186,-0.23518 -0.235187,0.23518 -0.235183,0.23518 z m -2.116667,-0.35277 h 0.470369 l -0.235183,-0.23519 -0.235186,-0.23518 -0.235187,0.23518 -0.235182,0.23519 z m -2.116667,-0.35278 h 0.470369 l -0.235183,-0.23519 -0.235186,-0.23518 -0.235186,0.23518 -0.235183,0.23519 z m 3.704167,0 h 0.176389 v -0.17639 -0.17639 h -0.176389 -0.176389 v 0.17639 0.17639 z m 1.234722,-0.35278 h 0.470369 l -0.235182,-0.23519 -0.235187,-0.23518 -0.235186,0.23518 -0.235183,0.23519 z m -2.116667,-0.35278 h 0.47037 l -0.235183,-0.23518 -0.235187,-0.23519 -0.235186,0.23519 -0.235183,0.23518 z m -4.409722,-0.35277 h 0.176389 v -0.17639 -0.17639 h -0.176389 -0.176389 v 0.17639 0.17639 z m 6.879167,0 h 0.470369 l -0.235183,-0.23519 -0.235186,-0.23518 -0.235186,0.23518 -0.235183,0.23519 z m -1.763889,-0.35278 h 0.470369 l -0.235183,-0.23519 -0.235186,-0.23518 -0.235186,0.23518 -0.235183,0.23519 z m -2.322453,-0.38063 0.676155,0.0279 -0.213134,-0.21314 -0.213138,-0.21313 -0.46302,0.18528 -0.463021,0.18529 z m 4.615509,-0.3937 1.058333,0.0131 -0.434259,-0.1757 -0.434259,-0.1757 -0.624074,0.16262 -0.624075,0.16263 1.058334,0.0131 z m -1.940278,-0.33971 h 0.881944 l -0.440972,-0.17793 -0.440972,-0.17794 -0.440972,0.17794 -0.440973,0.17793 z m -2.184041,-0.32187 0.949319,-0.0248 0.705555,-0.32709 0.705556,-0.32708 -1.190597,0.2132 -1.190597,0.2132 -0.220514,-0.34294 -0.220515,-0.34294 -0.79375,-0.24771 -0.79375,-0.24771 v 0.57376 0.57376 l 0.328401,-0.20296 0.328401,-0.20296 0.221587,0.35853 0.221583,0.35853 0.949321,-0.0248 z m -3.284015,-1.03354 h 0.176389 v -0.17639 -0.17638 h -0.176389 -0.176389 v 0.17638 0.17639 z m 62.958426,4.58611 h -1.07075 l 0.3776,-0.70555 0.37761,-0.70556 h 0.26981 0.26981 l 0.42333,0.42334 0.42333,0.42333 v 0.28222 0.28222 z m -91.560596,-1.49272 -1.031165,0.0948 -0.617361,-0.78389 -0.617362,-0.78389 v -1.09242 -1.09241 l 0.423334,-0.42333 0.423333,-0.42334 h 0.749895 0.749895 l 0.798977,0.85048 0.798979,0.85047 -0.121977,0.63336 -0.121973,0.63337 -0.703703,0.19185 -0.703704,0.19186 -0.09323,0.45608 -0.09323,0.45608 0.751409,-0.40214 0.751406,-0.40214 -0.156178,0.47522 -0.156178,0.47523 z m -0.678387,-0.62394 h 0.176388 v -0.17639 -0.17639 h -0.176388 -0.176389 v 0.17639 0.17639 z m 1.345095,-1.38038 0.322041,-0.32204 -0.237028,-0.38351 -0.237025,-0.38352 h -0.508348 -0.508347 v 0.28223 0.28222 l 0.423334,0.42333 0.423333,0.42333 z m -1.697873,-0.0307 h 0.176389 v -0.17639 -0.17639 H 46.067799 45.89141 v 0.17639 0.17639 z m -0.646759,-0.47037 0.235184,-0.23519 -0.235184,-0.23519 -0.235186,-0.23518 v 0.47037 0.47037 z m 1.195762,-1.035 0.692683,-0.43259 -0.367898,-0.12263 -0.367897,-0.12264 -0.539889,0.20718 -0.539889,0.20717 0.215104,0.34805 0.215104,0.34804 z m -0.549003,0.0943 H 45.89141 v -0.17639 -0.17639 h 0.176389 0.176389 v 0.17639 0.17639 z m -8.647841,2.11666 h -0.6687 l -0.908907,-0.90891 -0.908908,-0.9089 0.23365,-1.29596 0.23365,-1.29595 0.150875,-0.26458 0.150875,-0.26459 h 0.402514 0.402513 l -0.423333,0.42334 -0.423333,0.42333 v 0.61418 0.61418 l 0.404228,0.24983 0.404228,0.24982 -0.215505,-0.85864 -0.215505,-0.85864 0.921268,-0.0762 0.921268,-0.0762 0.477509,0.3963 0.477509,0.3963 v 0.85011 0.85012 l -0.79375,0.30607 -0.79375,0.30608 0.615334,0.24869 0.615336,0.24869 -0.195183,0.31581 -0.195183,0.31581 z m -0.524382,-0.70555 h 0.176389 v -0.17639 -0.17639 h -0.176389 -0.176389 v 0.17639 0.17639 z m 0.919688,-1.41111 h 0.315034 v -0.50835 -0.50835 l -0.376248,-0.23253 -0.376249,-0.23254 -0.161222,0.16123 -0.161222,0.16122 0.222436,0.57966 0.222436,0.57966 z m 25.274064,-0.0415 -1.146528,-0.0415 -1.5875,-0.29948 -1.587501,-0.29947 -0.705555,-0.16121 -0.705556,-0.16121 -1.154091,-0.027 -1.154092,-0.027 -0.389985,-0.85593 -0.389989,-0.85593 0.238101,-0.94867 0.2381,-0.94867 1.076533,0.21531 1.076537,0.21531 1.018981,0.85741 1.018981,0.85742 2.650046,0.4275 2.650045,0.4275 v 0.83354 0.83354 l -1.146527,-0.0415 z m -0.440973,-0.66406 h 0.176389 v -0.17639 -0.17639 h -0.176389 -0.176389 v 0.17639 0.17639 z m -2.536818,-0.35818 0.285401,0.005 -0.218027,-0.35278 -0.218028,-0.35278 -0.596543,0.005 -0.596541,0.005 0.529167,0.34197 0.529167,0.34197 0.285404,0.005 z m 1.449088,-0.0224 0.676155,0.0279 -0.213134,-0.21313 -0.213138,-0.21314 -0.463021,0.18529 -0.463021,0.18528 z m -4.380326,-0.67771 h 0.47037 l -0.235183,-0.23519 -0.235187,-0.23518 -0.235186,0.23518 -0.235183,0.23519 z m -1.5875,-0.70556 h 0.176389 v -0.17639 -0.17639 H 55.592799 55.41641 v 0.17639 0.17639 z m 1.058334,-0.35278 h 0.176389 v -0.17639 -0.17638 h -0.176389 -0.176389 v 0.17638 0.17639 z m 0,-0.70555 h 0.176389 v -0.17639 -0.17639 h -0.176389 -0.176389 v 0.17639 0.17639 z m 33.337502,2.46944 h -0.470369 l 0.235182,-0.23518 0.235187,-0.23519 0.235186,0.23519 0.235183,0.23518 z m -1.940278,-0.35278 h -0.176389 v -0.17638 -0.17639 h 0.176389 0.176389 v 0.17639 0.17638 z m -2.293056,-0.35277 h -0.470369 l 0.235183,-0.23519 0.235186,-0.23518 0.235187,0.23518 0.235182,0.23519 z m -2.116667,-0.35278 h -0.470369 l 0.235183,-0.23519 0.235186,-0.23518 0.235187,0.23518 0.235183,0.23519 z m -36.946907,-0.35278 h -0.469683 l -0.225366,-0.61736 -0.225366,-0.61736 -0.645507,-0.84133 -0.645506,-0.84132 v -0.3052 -0.30521 h 0.504705 0.504704 l 1.244253,0.79375 1.244253,0.79375 0.01492,0.54681 0.01492,0.5468 -0.423333,0.42334 -0.423334,0.42333 h -0.469683 z m 0.169822,-0.8462 0.440972,-0.25377 v -0.29422 -0.29421 l -0.579065,-0.22221 -0.579065,-0.22221 0.399616,0.48151 0.399615,0.48151 -0.261523,0.28868 -0.261522,0.28868 z m 35.013196,0.8462 h -0.470369 l 0.235183,-0.23518 0.235186,-0.23519 0.235187,0.23519 0.235183,0.23518 z m -2.116666,-0.35278 h -0.47037 l 0.235183,-0.23518 0.235187,-0.23519 0.235186,0.23519 0.235183,0.23518 z m -43.22704,-1.76389 h -0.752593 l -0.235185,-0.23518 -0.235185,-0.23519 v -0.44583 -0.44584 l 0.79375,-0.15288 0.79375,-0.15288 -0.79375,-0.048 -0.79375,-0.0481 v -0.54023 -0.54024 l 0.53189,-0.20411 0.53189,-0.2041 0.879221,0.57608 0.879221,0.57609 v 0.62687 0.62687 l -0.423333,0.42333 -0.423334,0.42333 z m -0.341019,-0.70555 h 0.176389 v -0.17639 -0.17639 H 36.19002 36.013631 v 0.17639 0.17639 z m 6.702779,-2.18544 -1.058334,-0.0131 0.624075,-0.16263 0.624076,-0.16263 0.434258,0.1757 0.434258,0.1757 -1.058333,-0.0131 z m -2.293056,-0.33971 h -0.881945 l 0.440973,-0.17793 0.440972,-0.17794 0.440972,0.17794 0.440972,0.17793 z m -1.969676,-0.32492 -0.676158,-0.0279 0.463021,-0.18528 0.463021,-0.18529 0.213137,0.21314 0.213136,0.21314 z m -1.734491,-0.32504 h -0.176389 v -0.17639 -0.17639 h 0.176389 0.176389 v 0.17639 0.17639 z m -2.469445,-1.41111 h -0.176389 v -0.17639 -0.17639 h 0.176389 0.176389 v 0.17639 0.17639 z m 0.705556,-0.35278 h -0.176389 v -0.17639 -0.17639 h 0.176389 0.176389 v 0.17639 0.17639 z m -1.087732,-0.38063 -0.676157,-0.0279 0.463021,-0.18528 0.463021,-0.18529 0.213136,0.21314 0.213137,0.21314 z m 6.908566,-0.6777 H 40.48215 l 0.235185,-0.23519 0.235186,-0.23518 0.235185,0.23518 0.235185,0.23519 z m 1.205324,-0.0278 -0.676158,-0.0279 0.463021,-0.18529 0.463021,-0.18528 0.213137,0.21313 0.213136,0.21314 z m 61.875915,-0.0127 -2.57985,-0.0406 -1.34687,-0.26057 -1.346872,-0.26057 -0.5631,-0.5631 -0.5631,-0.5631 0.42177,-0.50821 0.42178,-0.50821 1.716622,-0.73847 1.71663,-0.73847 1.09449,0.38154 1.09449,0.38154 v 0.49466 0.49465 h -0.48598 -0.48597 l -0.43917,0.52917 -0.43916,0.52917 h 0.8825 0.88251 l 2.00368,-0.91731 2.00366,-0.91731 1.21396,0.22774 1.21397,0.22774 v 0.45593 0.45594 l -1.91807,0.93919 -1.91807,0.93919 z m -0.46318,-0.31221 h 0.17639 v -0.17639 -0.17639 h -0.17639 -0.17639 v 0.17639 0.17639 z m -2.11667,-0.35278 h 0.17639 v -0.17639 -0.17639 h -0.17639 -0.17639 v 0.17639 0.17639 z m 3.88056,-0.024 0.70555,0.005 1.41111,-0.66775 1.41112,-0.66774 -0.88195,-0.0138 -0.88194,-0.0138 -1.23473,0.67598 -1.23472,0.67598 z m -4.88784,-0.44633 h 0.43892 l -0.0686,-0.38218 -0.0686,-0.38217 -0.33377,-0.23997 -0.33377,-0.23997 -0.716702,0.38357 -0.71669,0.38356 0.68014,0.23858 0.680142,0.23858 z m 1.44831,-0.94074 h 0.12978 l -0.20296,-0.3284 -0.20297,-0.3284 0.35854,-0.22159 0.35853,-0.22158 v 0.39441 0.39442 l 0.39808,-0.24603 0.39808,-0.24602 -0.64388,-0.36033 -0.64387,-0.36033 -0.12977,0.38933 -0.12978,0.38933 -0.59457,-0.18537 -0.59457,-0.18537 0.68479,0.55796 0.68478,0.55797 z m -67.116031,1.71675 -2.116667,0.0363 -0.529166,-0.34689 -0.529167,-0.34688 1.113581,0.21341 1.113582,0.2134 -0.05525,-0.65487 -0.05525,-0.65487 h 0.705555 0.705556 v 0.52917 0.52916 l 0.881944,0.22285 0.881945,0.22284 z m 8.819445,-0.0272 -0.352778,-0.0186 -1.234722,-0.2599 -1.234722,-0.2599 0.352778,-0.0859 0.352777,-0.0859 1.234723,-0.13319 1.234722,-0.13319 -0.48089,0.30631 -0.48089,0.30631 0.48089,0.19124 0.48089,0.19124 -0.352778,-0.0186 z m -11.288889,-0.98404 h -0.176389 v -0.17639 -0.17639 h 0.176389 0.176388 v 0.17639 0.17639 z m 133.526395,-0.40848 h -0.88194 l 0.44097,-0.17794 0.44097,-0.17793 0.44097,0.17793 0.44098,0.17794 z m 3.67477,0.0279 -0.67616,-0.0279 0.46302,-0.18529 0.46302,-0.18528 0.21314,0.21313 0.21314,0.21314 -0.67616,-0.0279 z M 71.4678,32.497367 h -0.176389 v -0.17639 -0.17639 h 0.176389 0.176389 v 0.17639 0.17639 z m -0.705555,-0.35278 h -0.176389 v -0.17639 -0.17639 h 0.176389 0.176389 v 0.17639 0.17639 z m 72.319445,50.8 h 0.17639 v -0.17639 -0.17639 h -0.17639 -0.17639 v 0.17639 0.17639 z m -11.81805,-0.40848 h 0.88194 l -0.44097,-0.17794 -0.44097,-0.17794 -0.44098,0.17794 -0.44097,0.17794 z m -2.11667,-0.35278 h 0.88194 l -0.44097,-0.17794 -0.44097,-0.17793 -0.44097,0.17793 -0.44097,0.17794 z m 14.41255,0.0557 h 0.29473 l 2.08316,-1.36254 2.08317,-1.36253 4.98821,-3.84094 4.9882,-3.84093 6.91111,-5.2282 6.91111,-5.2282 0.33383,-1.29819 0.33383,-1.29819 0.22914,-4.58611 0.22915,-4.58611 0.17329,-0.61736 0.17329,-0.61736 h -0.36315 -0.36314 l -3.10021,2.1734 -3.10021,2.17341 -9.87778,6.60399 -9.87778,6.604 -0.70555,0.68981 -0.70556,0.68981 -0.37966,-0.51461 -0.37966,-0.51461 -0.77199,0.24502 -0.77199,0.24502 0.2112,0.34172 0.2112,0.34173 0.76406,-0.21384 0.76406,-0.21385 -0.43452,0.30453 -0.43453,0.30452 -0.17694,3.51095 -0.17694,3.51094 -0.17893,3.79236 -0.17892,3.79236 z m 13.63699,-12.34722 h -0.53287 v -0.70556 -0.70555 h 0.3736 0.37359 l -0.21553,-0.34874 -0.21553,-0.34874 0.46649,0.17901 0.46649,0.17901 6.12335,-4.59277 6.12336,-4.59277 h 0.30764 0.30765 l -0.005,0.61736 -0.005,0.61736 -6.51772,4.85069 -6.51771,4.8507 h -0.53288 z m 7.71577,-5.99722 h 0.17639 l 0.21802,-0.35278 0.21803,-0.35278 h -0.17639 -0.17639 l -0.21802,0.35278 -0.21803,0.35278 z m 2.82222,-2.11667 h 0.17639 l 0.21803,-0.35278 0.21802,-0.35278 h -0.17639 -0.17638 l -0.21803,0.35278 -0.21803,0.35278 z m -10.10948,-0.0687 -0.13722,1.30345 -0.0593,-1.26142 -0.0593,-1.26142 0.79375,-0.72117 0.79375,-0.72117 5.02709,-3.40219 5.02708,-3.40219 v 0.16959 0.16959 l -5.62431,3.91174 -5.62431,3.91174 z m 11.91501,-9.45627 h -0.17639 v -0.17639 -0.17639 h 0.17639 0.17639 v 0.17639 0.17639 z m -42.15695,29.57763 h 0.88195 l -0.44098,-0.17793 -0.44097,-0.17794 -0.44097,0.17794 -0.44097,0.17793 z m -1.76389,-0.35277 h 0.88195 l -0.44098,-0.17794 -0.44097,-0.17794 -0.44097,0.17794 -0.44097,0.17794 z m 3.32199,0.0278 0.67616,0.0278 -0.21314,-0.21313 -0.21313,-0.21314 -0.46302,0.18529 -0.46302,0.18528 0.67615,0.0278 z m -5.43866,-0.38061 h 0.88195 l -0.44097,-0.17794 -0.44098,-0.17794 -0.44097,0.17794 -0.44097,0.17794 z m 3.52778,0.0557 h 0.47037 l -0.23518,-0.23519 -0.23519,-0.23518 -0.23518,0.23518 -0.23519,0.23519 z m 3.67477,-0.0278 0.67616,0.0278 -0.21314,-0.21314 -0.21313,-0.21313 -0.46303,0.18528 -0.46302,0.18529 0.67616,0.0278 z m -8.96643,-0.38064 h 0.88194 l -0.44097,-0.17794 -0.44097,-0.17793 -0.44098,0.17793 -0.44097,0.17794 z m 3.32199,0.0278 0.67615,0.0278 -0.21313,-0.21314 -0.21314,-0.21313 -0.46302,0.18528 -0.46302,0.18529 0.67616,0.0278 z m 3.52778,0 0.67615,0.0278 -0.21313,-0.21314 -0.21314,-0.21313 -0.46302,0.18528 -0.46302,0.18529 0.67616,0.0278 z m 3.20439,0.0279 h 0.17639 v -0.17639 -0.17639 h -0.17639 -0.17639 v 0.17639 0.17639 z m -12.17083,-0.40848 h 0.88194 l -0.44097,-0.17793 -0.44097,-0.17794 -0.44097,0.17794 -0.44098,0.17793 z m 3.52778,0.0557 h 0.47037 l -0.23519,-0.23518 -0.23518,-0.23519 -0.23519,0.23519 -0.23518,0.23518 z m 3.67477,-0.0278 0.67615,0.0278 -0.21313,-0.21313 -0.21314,-0.21314 -0.46302,0.18529 -0.46302,0.18528 0.67616,0.0278 z m -8.96644,-0.38064 h 0.88194 l -0.44097,-0.17794 -0.44097,-0.17794 -0.44097,0.17794 -0.44097,0.17794 z m 3.32199,0.0278 0.67616,0.0278 -0.21314,-0.21313 -0.21313,-0.21314 -0.46303,0.18529 -0.46302,0.18528 0.67616,0.0278 z m 3.52778,0 0.67616,0.0278 -0.21314,-0.21313 -0.21314,-0.21314 -0.46302,0.18529 -0.46302,0.18528 0.67616,0.0278 z m -8.96644,-0.38061 h 0.88195 l -0.44097,-0.17794 -0.44098,-0.17794 -0.44097,0.17794 -0.44097,0.17794 z m 3.52778,0.0557 h 0.47037 l -0.23518,-0.23519 -0.23519,-0.23518 -0.23519,0.23518 -0.23518,0.23519 z m 3.67477,-0.0278 0.67616,0.0278 -0.21314,-0.21314 -0.21314,-0.21313 -0.46302,0.18528 -0.46302,0.18529 0.67616,0.0278 z m -8.96644,-0.38064 h 0.88195 l -0.44097,-0.17794 -0.44098,-0.17794 -0.44097,0.17794 -0.44097,0.17794 z m 3.52778,0.0557 h 0.47037 l -0.23518,-0.23519 -0.23519,-0.23518 -0.23518,0.23518 -0.23519,0.23519 z m 3.32199,-0.0278 0.67616,0.0278 -0.21313,-0.21314 -0.21314,-0.21313 -0.46302,0.18528 -0.46302,0.18529 0.67615,0.0278 z m -8.96643,-0.38065 h 0.88194 l -0.44097,-0.17794 -0.44097,-0.17793 -0.44097,0.17793 -0.44098,0.17794 z m 7.20255,0.0278 0.67615,0.0278 -0.21313,-0.21314 -0.21314,-0.21313 -0.46302,0.18528 -0.46302,0.18529 0.67616,0.0278 z m -8.96644,-0.38062 h 0.88194 l -0.44097,-0.17793 -0.44097,-0.17794 -0.44097,0.17794 -0.44098,0.17793 z m 7.20255,0.0278 0.67615,0.0278 -0.21313,-0.21314 -0.21314,-0.21313 -0.46302,0.18529 -0.46302,0.18528 0.67616,0.0278 z m -8.96644,-0.40839 h 0.88194 l -1.05833,-0.2693 -1.05833,-0.2693 h -0.88195 -0.88194 l 1.05833,0.2693 1.05833,0.2693 z m -4.05695,-0.69085 1.05834,0.0131 -0.43426,-0.1757 -0.43426,-0.17569 -0.62407,0.16262 -0.62408,0.16263 1.05833,0.0131 z m -1.94027,-0.33971 h 0.88194 l -0.44097,-0.17793 -0.44097,-0.17794 -0.44098,0.17794 -0.44097,0.17793 z m -1.76389,-0.38055 h 0.88194 l -1.05833,-0.2693 -1.058332,-0.2693 h -0.88195 -0.88194 l 1.05833,0.2693 1.05833,0.2693 z m -3.880562,-0.67778 h 0.88195 l -0.44098,-0.17794 -0.44097,-0.17794 -0.44097,0.17794 -0.440967,0.17794 z m -1.940277,-0.36585 1.05834,0.0131 -0.43426,-0.17571 -0.43426,-0.17569 -0.62407,0.16262 -0.62408,0.16263 1.05833,0.013 z m -1.940274,-0.33971 h 0.881944 l -0.44097,-0.17793 -0.440974,-0.17794 -0.440972,0.17794 -0.440972,0.17793 z m -1.763889,-0.38055 h 0.881945 l -1.058334,-0.2693 -1.058333,-0.2693 h -0.881945 -0.881944 l 1.058333,0.2693 1.058334,0.2693 z m -3.880556,-0.67778 h 0.881945 l -0.440972,-0.17794 -0.440973,-0.17793 -0.440972,0.17793 -0.440972,0.17794 z m -1.763889,-0.37282 0.881945,0.004 -2.116667,-0.47762 -2.116667,-0.47763 -0.705555,0.0242 -0.705556,0.0242 1.940278,0.44998 1.940278,0.44999 0.881944,0.004 z m 55.580137,-6.65736 1.39348,-0.0303 -1.04988,-0.31327 -1.04988,-0.31327 -0.34359,0.3436 -0.3436,0.3436 1.39347,-0.0303 z m -4.63314,-0.3503 0.67615,0.0278 -0.21313,-0.21314 -0.21314,-0.21313 -0.46302,0.18528 -0.46302,0.18529 0.67616,0.0278 z m -1.91088,-0.38063 h 0.88194 l -0.44097,-0.17794 -0.44097,-0.17794 -0.44098,0.17794 -0.44097,0.17794 z m -1.76389,-0.29708 h 0.47037 l -0.23519,-0.23519 -0.23518,-0.23518 -0.23519,0.23518 -0.23518,0.23519 z m -1.96968,-0.38063 0.67616,0.0279 -0.21314,-0.21314 -0.21313,-0.21313 -0.46303,0.18529 -0.46302,0.18528 z m 13.25857,0.0279 h 0.47037 l -0.23519,-0.23518 -0.23518,-0.23519 -0.23519,0.23519 -0.23518,0.23518 z m -15.37523,-0.38063 0.67615,0.0279 -0.21313,-0.21313 -0.21314,-0.21314 -0.46302,0.18529 -0.46302,0.18528 z m -2.11667,-0.35277 0.67615,0.0279 -0.21313,-0.21314 -0.21314,-0.21314 -0.46302,0.18529 -0.46302,0.18529 z m -2.11667,-0.35278 0.67616,0.0279 -0.21314,-0.21314 -0.21313,-0.21313 -0.46303,0.18528 -0.46302,0.18529 z m 22.60718,0.0279 h 0.17639 v -0.17639 -0.17639 h -0.17639 -0.17639 v 0.17639 0.17639 z m -24.72384,-0.38063 0.67615,0.0279 -0.21313,-0.21314 -0.21314,-0.21313 -0.46302,0.18528 -0.46302,0.18529 z m -2.11667,-0.35278 0.67615,0.0279 -0.21313,-0.21314 -0.21314,-0.21313 -0.46302,0.18529 -0.46302,0.18528 z m 27.89884,0.0279 h 0.17639 v -0.17638 -0.17639 h -0.17639 -0.17639 v 0.17639 0.17638 z m -30.01551,-0.38063 0.67616,0.0279 -0.21314,-0.21313 -0.21313,-0.21314 -0.46303,0.18529 -0.46302,0.18528 z m -2.44005,-0.3937 1.05834,0.0131 -0.43426,-0.1757 -0.43426,-0.1757 -0.62407,0.16263 -0.62408,0.16263 1.05833,0.0131 z m 33.5139,0.0688 h 0.17638 v -0.17639 -0.17639 h -0.17638 -0.17639 v 0.17639 0.17639 z m 1.05833,-0.70556 h 0.17639 v -0.17639 -0.17638 h -0.17639 -0.17639 v 0.17638 0.17639 z m -120.478182,-0.58662 0.26858,-0.29532 0.199488,-4.50558 0.199487,-4.50559 -0.33725,0.20843 -0.337251,0.20844 0.209021,0.41659 0.20902,0.4166 -0.781237,-0.88195 -0.781237,-0.88194 0.182692,4.63922 0.182693,4.63923 0.258707,0.41859 0.258706,0.4186 z m 121.536512,-0.11893 h 0.17639 v -0.17639 -0.17639 h -0.17639 -0.17639 v 0.17639 0.17639 z m 1.05834,-0.70556 h 0.17638 v -0.17639 -0.17639 h -0.17638 -0.17639 v 0.17639 0.17639 z m 1.05833,-0.70555 h 0.17639 v -0.17639 -0.17639 h -0.17639 -0.17639 v 0.17639 0.17639 z m 1.05833,-0.70556 h 0.17639 v -0.17639 -0.17639 h -0.17639 -0.17639 v 0.17639 0.17639 z m 1.05834,-0.70555 h 0.17638 v -0.17639 -0.17639 h -0.17638 -0.17639 v 0.17639 0.17639 z m 1.05833,-0.70556 h 0.17639 v -0.17639 -0.17639 h -0.17639 -0.17639 v 0.17639 0.17639 z m 1.05833,-0.70556 h 0.17639 v -0.17638 -0.17639 h -0.17639 -0.17639 v 0.17639 0.17638 z m 1.05834,-0.70555 h 0.17638 v -0.17639 -0.17639 h -0.17638 -0.17639 v 0.17639 0.17639 z m 1.05833,-0.70556 h 0.17639 v -0.17639 -0.17638 h -0.17639 -0.17639 v 0.17638 0.17639 z m 1.05833,-0.70555 h 0.17639 v -0.17639 -0.17639 h -0.17639 -0.17639 v 0.17639 0.17639 z m 1.05834,-0.70556 h 0.17638 v -0.17639 -0.17639 h -0.17638 -0.17639 v 0.17639 0.17639 z m 1.05833,-0.70555 h 0.17639 v -0.17639 -0.17639 h -0.17639 -0.17639 v 0.17639 0.17639 z m 1.05833,-0.70556 h 0.17639 v -0.17639 -0.17639 h -0.17639 -0.17639 v 0.17639 0.17639 z m 1.05834,-0.70556 h 0.17639 v -0.17638 -0.17639 h -0.17639 -0.17639 v 0.17639 0.17638 z m 1.41111,-1.05833 h 0.17639 v -0.17639 -0.17639 h -0.17639 -0.17639 v 0.17639 0.17639 z m 1.05833,-0.70555 h 0.17639 v -0.17639 -0.17639 h -0.17639 -0.17639 v 0.17639 0.17639 z m 1.05833,-0.70556 h 0.17639 v -0.17639 -0.17638 h -0.17639 -0.17638 v 0.17638 0.17639 z m 1.05834,-0.70555 h 0.17639 v -0.17639 -0.17639 h -0.17639 -0.17639 v 0.17639 0.17639 z m 1.01669,-0.70556 h 0.17639 l 0.21803,-0.35278 0.21803,-0.35277 h -0.17639 -0.17639 l -0.21803,0.35277 -0.21803,0.35278 z m 1.05834,-0.70555 h 0.17639 l 0.21802,-0.35278 0.21803,-0.35278 h -0.17639 -0.17639 l -0.21803,0.35278 -0.21802,0.35278 z m 1.05833,-0.70556 h 0.17639 l 0.21803,-0.35278 0.21802,-0.35277 h -0.17639 -0.17638 l -0.21803,0.35277 -0.21803,0.35278 z M 72.878912,31.439027 H 73.0553 v -0.17639 -0.17638 h -0.176388 -0.176389 v 0.17638 0.17639 z"
       style="fill:#000000;stroke-width:0.352778" />
  </g>
</svg>
