<?xml version="1.0" encoding="utf-8"?>
<svg viewBox="-30.052 344.8 633.2 593.161" width="633.2000122070312" height="543.93505859375" xmlns="http://www.w3.org/2000/svg">
  <g transform="matrix(1, 0, 0, 1, -22.051971, 0)">
    <path d="M 327.8 483 L 362.6 483 L 369 453.6 C 351 455 340.4 463 333.4 473.4 C 330.8 477 329.2 479.4 327.8 483 Z" style=""/>
    <path d="M 324.6 507.6 L 289.6 672.6 L 322.8 672.6 L 357.8 507.6 Z" style=""/>
    <path d="M 411 543.8 L 423.8 483 L 500.8 483 L 507.2 453.6 L 395.2 453.6 L 348.6 672.6 L 383.6 672.6 L 404.8 573.2 L 481.8 573.2 L 488 543.8 Z" style=""/>
    <path d="M 259.2 503.4 C 240.8 503.4 223.4 512.2 212 527 L 211 527 L 215 507.6 L 183.8 507.6 L 148.8 672.8 L 181.8 672.8 L 205.4 562 C 210 540.6 225.2 529.8 238.6 529.8 C 255.2 529.8 259.8 538.2 255.2 559.6 L 231.2 672.8 L 264.4 672.8 L 290.8 548.2 C 297.8 514.8 284.4 503.4 259.2 503.4 Z" style=""/>
    <path d="M 380.8 397.8 C 336.2 399 307 417.6 291.2 440.2 C 280.8 454.8 275.6 470 272.8 482.8 L 302.8 483 C 305.2 474.6 309 465.4 314.8 457.2 C 325.6 442.6 342.2 429.8 374.6 427.2 L 380.8 397.8 Z" style=""/>
    <path d="M 273.4 424 C 292.4 398.2 323.8 375.8 385.6 376 L 391.8 347 C 319 344.8 274 372.8 249.8 407 C 230.8 433.6 223.8 462.4 221 482.8 L 250.4 483 C 253.2 466 259.4 443.4 273.4 424 Z" style=""/>
    <path d="M 134.8 453.6 L 101.4 610.8 C 95.4 638.4 81.6 650.6 60.8 650.6 C 39.6 650.6 31.4 638.4 37.2 610.8 L 70.6 453.6 L 35.6 453.6 L 2.8 608 C -8 658.6 13.2 677 55.2 677 C 97 677 126 658.6 136.8 608 L 169.8 453.6 L 134.8 453.6 Z" style=""/>
    <path d="M 486 672.6 L 519.4 672.6 L 554.4 507.6 L 521.2 507.6 Z" style=""/>
    <path d="M 532.8 453.6 L 526.2 483 L 557.4 483 C 557 459 532.8 453.6 532.8 453.6 Z" style=""/>
    <path d="M 613 471.6 C 613 466.6 610 464.4 603.8 464.4 L 594.2 464.4 L 594.2 489.8 L 598.2 489.8 L 598.2 479 L 602.2 479 L 608.8 489.8 L 613.6 489.8 L 606.4 478.6 C 610.2 478 613 476.2 613 471.6 Z M 598.2 475.4 L 598.2 468 L 603.2 468 C 605.8 468 608.8 468.4 608.8 471.4 C 608.8 475 606.2 475.4 603 475.4 L 598.2 475.4 Z" style=""/>
    <path d="M 602.8 453.6 C 590.6 453.6 580.2 462.8 580.2 476.6 C 580.2 489.8 589.6 499.6 602.8 499.6 C 614.8 499.6 625.2 490.4 625.2 476.6 C 625.2 462.8 614.8 453.6 602.8 453.6 Z M 602.8 495.6 C 592 495.6 585.2 487 585.2 476.6 C 585.2 465.4 592.8 457.6 602.8 457.6 C 612.6 457.6 620.4 465.4 620.4 476.6 C 620.4 487.8 612.6 495.6 602.8 495.6 Z" style=""/>
  </g>
  <g transform="matrix(1.386034, 0, 0, 1.386034, -147.35524, -293.855713)" style="">
    <path d="M 473.776 723.936 L 111.776 723.936 C 103.176 723.936 96.176 760.936 96.176 806.335 C 96.176 851.936 103.176 888.735 111.776 888.735 L 473.576 888.735 C 482.176 888.735 490.776 851.936 490.776 806.335 C 490.976 760.936 482.176 723.936 473.776 723.936 Z M 190.376 855.735 L 170.376 855.735 L 147.176 756.936 L 163.976 756.936 L 180.776 835.735 L 180.976 835.735 L 198.776 756.936 L 215.576 756.936 L 190.376 855.735 Z M 234.376 855.735 L 218.576 855.735 L 218.576 756.936 L 234.376 756.936 L 234.376 855.735 Z M 274.576 855.735 L 246.576 855.735 L 246.576 756.936 L 274.576 756.936 C 305.576 756.936 309.376 777.135 309.376 806.335 C 309.376 835.536 305.576 855.735 274.576 855.735 Z M 374.576 855.735 L 319.976 855.735 L 319.976 756.936 L 373.376 756.936 L 373.376 770.135 L 335.776 770.135 L 335.776 797.536 L 371.176 797.536 L 371.176 810.735 L 335.776 810.735 L 335.776 842.335 L 374.576 842.335 L 374.576 855.735 Z M 413.376 857.735 C 390.776 857.735 380.776 841.735 380.776 806.335 C 380.776 793.135 382.176 782.536 385.176 774.536 C 386.176 771.936 387.376 769.536 388.576 767.335 C 389.976 765.135 391.376 763.335 393.176 761.735 C 398.176 756.936 404.976 754.735 413.376 754.735 C 435.976 754.735 445.976 770.735 445.976 806.135 C 445.976 841.536 436.176 857.735 413.376 857.735 Z" style=""/>
    <path d="M 277.576 769.135 L 275.176 768.936 L 262.176 768.936 L 262.176 843.936 L 275.176 843.936 C 288.376 843.936 293.576 835.335 293.576 806.536 L 293.576 806.335 C 293.576 780.335 289.576 770.135 277.576 769.135 Z" style=""/>
    <path d="M 413.376 766.936 L 412.576 766.936 C 411.976 766.936 411.376 766.936 410.776 767.135 C 410.176 767.135 409.576 767.335 409.176 767.536 L 407.576 768.135 L 406.776 768.536 C 406.176 768.735 405.776 769.135 405.376 769.536 C 404.976 769.936 404.376 770.335 403.976 770.735 C 402.576 772.135 401.376 773.936 400.376 776.536 C 400.176 776.936 399.976 777.335 399.976 777.936 C 399.576 778.936 399.376 779.735 399.176 780.936 C 397.576 786.735 396.776 794.936 396.776 806.335 L 396.776 806.335 L 396.776 806.335 C 396.776 817.936 397.576 826.335 399.176 832.335 L 399.976 835.335 C 400.176 835.735 400.376 836.335 400.376 836.735 C 401.376 839.335 402.576 841.135 403.976 842.536 L 405.376 843.735 C 405.376 843.735 406.376 844.335 406.776 844.735 L 407.576 845.135 L 409.176 845.735 C 409.176 845.735 410.176 845.936 410.776 846.135 L 412.576 846.335 L 413.376 846.335 C 422.776 846.335 430.376 840.536 430.176 806.536 C 430.176 806.536 430.176 806.536 430.176 806.536 C 430.176 806.536 430.176 806.536 430.176 806.536 C 430.376 772.735 422.776 766.936 413.376 766.936 Z" style=""/>
  </g>
</svg>