 <svg version="1.0" xmlns="http://www.w3.org/2000/svg" width="700.000000pt" height="700.000000pt" viewBox="0 0 700.000000 700.000000" preserveAspectRatio="xMidYMid meet">
<metadata>
Created by potrace 1.12, written by Peter Selinger 2001-2015
</metadata>
<g transform="translate(0.000000,700.000000) scale(0.100000,-0.100000)" fill="#000000" stroke="none">
<path d="M2225 4761 c-33 -10 -107 -36 -165 -59 -381 -148 -621 -241 -730
-282 -69 -26 -219 -85 -335 -130 -116 -45 -221 -85 -235 -90 -113 -36 -168
-81 -140 -115 7 -9 8 -15 0 -20 -12 -8 -12 -232 1 -425 5 -74 10 -150 11 -168
1 -22 6 -31 14 -28 8 3 29 -1 48 -9 35 -15 126 -33 901 -175 2189 -401 2279
-418 2630 -485 435 -83 609 -113 715 -124 89 -8 255 6 293 26 29 14 360 261
901 670 104 79 194 143 201 143 17 0 26 39 15 60 -5 10 -7 20 -4 23 6 5 23
217 39 472 6 100 5 112 -12 127 -32 29 -85 46 -199 62 -60 9 -154 23 -209 31
-55 8 -147 22 -205 30 -58 8 -276 40 -485 70 -209 30 -551 80 -760 110 -209
30 -535 77 -725 105 -1196 173 -1391 200 -1445 199 -33 0 -87 -8 -120 -18z
m1574 -601 c-36 -19 -59 -21 -59 -5 0 12 6 14 26 9 19 -5 25 -3 20 4 -5 8 -1
10 10 5 13 -5 13 -7 3 -13z m-332 -16 c-3 -3 -12 -4 -19 -1 -8 3 -5 6 6 6 11
1 17 -2 13 -5z m2562 -257 c-2 -1 -13 -9 -24 -17 -19 -14 -19 -14 -6 3 7 9 18
17 24 17 6 0 8 -1 6 -3z m-4703 -52 c15 -13 25 -27 21 -31 -3 -4 -21 7 -39 25
-38 37 -24 42 18 6z m4654 21 c0 -5 -89 -66 -400 -274 -151 -102 -282 -191
-291 -198 -18 -16 -29 -18 -29 -5 0 8 147 107 555 376 161 106 165 108 165
101z m-4613 -83 c-21 -22 -32 -11 -15 16 8 13 16 17 22 11 7 -7 4 -16 -7 -27z
m413 -58 c8 -10 3 -12 -22 -10 -20 1 -34 8 -36 17 -4 19 41 13 58 -7z m96 -17
c0 -23 -18 -23 -47 1 l-24 19 35 -1 c27 -1 36 -5 36 -19z m111 -6 c15 -5 20
-11 14 -20 -9 -16 -81 -6 -81 10 0 6 -7 8 -15 4 -8 -3 -15 -1 -15 4 0 11 62
12 97 2z m540 -139 c-2 -16 -4 -3 -4 27 0 30 2 43 4 28 2 -16 2 -40 0 -55z
m-139 22 c4 -35 -15 -105 -28 -105 -5 0 -7 -7 -4 -15 4 -8 1 -15 -5 -15 -15 0
-14 16 4 49 12 25 12 31 1 40 -8 7 -14 28 -13 47 1 29 4 34 21 32 15 -2 22
-12 24 -33z m335 -32 c62 -11 87 -20 87 -30 0 -11 -8 -13 -27 -9 -16 3 -68 13
-118 22 -96 17 -108 21 -101 33 6 9 41 6 159 -16z m-323 -73 c0 -5 -5 -10 -11
-10 -5 0 -7 5 -4 10 3 6 8 10 11 10 2 0 4 -4 4 -10z m825 -37 c-7 -28 -34 -55
-48 -46 -5 3 -1 14 9 24 9 10 12 19 6 19 -6 0 -16 -9 -22 -20 -12 -22 -30 -27
-30 -8 0 21 43 58 68 58 21 0 23 -3 17 -27z m-698 -95 c-2 -18 -4 -6 -4 27 0
33 2 48 4 33 2 -15 2 -42 0 -60z m518 21 c-6 -50 -5 -61 6 -57 8 3 19 26 24
51 11 50 28 66 33 31 2 -16 8 -20 32 -16 21 3 32 -1 36 -12 3 -9 12 -16 20
-16 8 0 14 -10 14 -22 0 -19 2 -20 10 -8 5 8 10 27 10 43 0 15 6 28 13 28 27
3 53 -3 65 -16 12 -10 9 -12 -17 -9 -35 4 -51 -14 -28 -31 23 -16 21 -25 -3
-25 -15 0 -20 -7 -20 -25 0 -20 -5 -25 -24 -25 -14 0 -36 4 -49 9 -23 9 -25
14 -20 52 7 52 -13 46 -23 -6 -7 -40 -21 -54 -30 -31 -5 12 -9 13 -25 3 -31
-19 -54 3 -53 49 1 52 12 94 25 94 7 0 9 -20 4 -61z m-662 16 c-4 -15 -36 -12
-41 3 -3 9 3 13 19 10 13 -1 23 -7 22 -13z m2642 -15 c-3 -5 -15 -10 -25 -10
-10 0 -22 5 -25 10 -4 6 7 10 25 10 18 0 29 -4 25 -10z m-2646 -24 c9 -10 9
-16 1 -21 -16 -10 -40 2 -40 20 0 19 24 20 39 1z m311 -11 c102 -18 136 -30
110 -39 -24 -9 -233 37 -238 53 -3 9 2 11 14 7 11 -3 62 -12 114 -21z m635
-27 c-12 -60 -17 -70 -26 -61 -15 15 1 93 18 93 11 0 13 -8 8 -32z m181 8 c39
-7 76 -16 83 -20 17 -11 14 -95 -3 -102 -8 -3 -58 3 -112 13 -90 17 -98 21
-105 45 -4 14 -4 37 -2 52 6 31 30 33 139 12z m-496 -125 c67 -10 213 -35 405
-71 61 -11 133 -25 160 -30 82 -15 110 -26 110 -41 0 -28 -117 -12 -655 92
-63 12 -119 25 -124 30 -15 13 2 41 21 35 10 -3 47 -10 83 -15z m1640 -111 c0
-13 -11 -13 -30 0 -12 8 -11 10 8 10 12 0 22 -4 22 -10z m-25 -30 c-3 -5 -12
-10 -18 -10 -7 0 -6 4 3 10 19 12 23 12 15 0z"></path>
<path d="M3090 3319 c0 -11 5 -17 10 -14 6 3 10 13 10 21 0 8 -4 14 -10 14 -5
0 -10 -9 -10 -21z"></path>
<path d="M3176 3321 c-4 -7 -5 -15 -2 -18 9 -9 19 4 14 18 -4 11 -6 11 -12 0z"></path>
<path d="M3200 3280 c0 -5 5 -10 10 -10 6 0 10 5 10 10 0 6 -4 10 -10 10 -5 0
-10 -4 -10 -10z"></path>
<path d="M3435 3280 c-4 -6 -14 -9 -22 -6 -10 4 -13 1 -11 -10 4 -21 58 -29
58 -8 0 8 0 17 1 21 1 13 -19 15 -26 3z"></path>
<path d="M3485 3260 c-7 -12 2 -30 16 -30 5 0 9 9 9 20 0 21 -15 27 -25 10z"></path>
<path d="M3538 3265 c-9 -9 4 -56 14 -53 5 2 9 7 9 11 -1 4 -1 16 -1 27 0 19
-11 26 -22 15z"></path>
<path d="M620 3395 c0 -8 5 -15 10 -15 6 0 10 7 10 15 0 8 -4 15 -10 15 -5 0
-10 -7 -10 -15z"></path>
</g>
</svg>